<?xml version="1.0" encoding="UTF-8" standalone="no"?><!DOCTYPE svg PUBLIC "-//W3C//DTD SVG 1.1//EN" "http://www.w3.org/Graphics/SVG/1.1/DTD/svg11.dtd"><svg width="100%" height="100%" viewBox="0 0 478 92" version="1.1" xmlns="http://www.w3.org/2000/svg" xmlns:xlink="http://www.w3.org/1999/xlink" xml:space="preserve" xmlns:serif="http://www.serif.com/" style="fill-rule:evenodd;clip-rule:evenodd;stroke-linejoin:round;stroke-miterlimit:1.41421;"><path d="M25.834,59.105c0,1.109 0.293,1.957 0.881,2.544c0.587,0.587 1.37,0.881 2.348,0.881c1.305,0 2.593,-0.424 3.865,-1.272c1.273,-0.848 2.398,-1.827 3.376,-2.936c1.175,-1.174 2.251,-2.577 3.23,-4.208c0.065,-0.196 0.228,-0.424 0.489,-0.685c0.13,-0.13 0.326,-0.277 0.587,-0.44c0.261,-0.163 0.555,-0.245 0.881,-0.245c0.522,0 0.995,0.196 1.419,0.587c0.424,0.392 0.636,0.848 0.636,1.37c0,0.261 -0.049,0.506 -0.147,0.734c-0.098,0.229 -0.212,0.473 -0.343,0.734c-0.13,0.261 -0.26,0.555 -0.391,0.881c-1.435,2.283 -3.033,4.305 -4.795,6.067c-1.5,1.5 -3.278,2.87 -5.333,4.11c-2.055,1.239 -4.289,1.859 -6.703,1.859c-1.892,0 -3.588,-0.261 -5.089,-0.783c-1.5,-0.522 -2.805,-1.223 -3.914,-2.104c-1.109,-0.88 -1.957,-1.908 -2.544,-3.082c-0.587,-1.174 -0.881,-2.447 -0.881,-3.816c0,-2.153 0.326,-4.176 0.979,-6.068c0.652,-1.891 1.353,-3.62 2.104,-5.186c0.75,-1.566 1.451,-2.952 2.104,-4.159c0.652,-1.207 0.978,-2.202 0.978,-2.984c0,-0.522 -0.31,-0.914 -0.93,-1.175c-0.619,-0.261 -1.288,-0.489 -2.006,-0.685c-0.848,-0.195 -1.826,-0.358 -2.935,-0.489c-1.892,4.762 -3.686,8.66 -5.382,11.694c-1.696,3.033 -3.066,5.3 -4.11,6.801c-0.131,0.196 -0.375,0.489 -0.734,0.881c-0.359,0.391 -0.832,0.587 -1.419,0.587c-0.522,0 -0.995,-0.212 -1.419,-0.636c-0.424,-0.424 -0.636,-0.897 -0.636,-1.419c0,-0.457 0.147,-0.897 0.44,-1.321c0.294,-0.424 0.506,-0.767 0.636,-1.028c0.914,-1.305 2.202,-3.376 3.866,-6.214c1.663,-2.837 3.213,-6.572 4.648,-11.204c-0.653,-0.457 -1.207,-1.044 -1.664,-1.762c-0.391,-0.587 -0.75,-1.337 -1.076,-2.25c-0.326,-0.914 -0.489,-1.99 -0.489,-3.229c0,-0.979 0.179,-1.909 0.538,-2.789c0.359,-0.881 0.832,-1.648 1.419,-2.3c0.587,-0.652 1.207,-1.174 1.859,-1.566c0.652,-0.391 1.272,-0.587 1.859,-0.587c0.653,0 1.338,0.18 2.055,0.538c0.718,0.359 1.37,0.783 1.957,1.273c0.587,0.489 1.077,1.043 1.468,1.663c0.392,0.62 0.587,1.158 0.587,1.615c0,1.304 -0.212,2.381 -0.636,3.229c-0.424,0.848 -0.636,1.663 -0.636,2.446c0,0.718 0.392,1.24 1.174,1.566c0.783,0.326 1.762,0.489 2.936,0.489c1.109,0 2.039,-0.065 2.789,-0.195c0.75,-0.131 1.419,-0.278 2.006,-0.441c0.587,-0.163 1.142,-0.31 1.664,-0.44c0.521,-0.131 1.076,-0.196 1.663,-0.196c1.174,0 2.137,0.457 2.887,1.37c0.75,0.913 1.125,2.023 1.125,3.327c0,1.109 -0.375,2.43 -1.125,3.963c-0.75,1.533 -1.582,3.213 -2.495,5.04c-0.914,1.827 -1.746,3.735 -2.496,5.725c-0.75,1.989 -1.125,3.963 -1.125,5.92Z" style="fill:#ff7fad;fill-rule:nonzero;"/><path d="M51.276,50.004c1.762,0 3.425,-0.489 4.991,-1.468c1.566,-0.978 2.919,-2.169 4.061,-3.571c1.142,-1.403 2.039,-2.854 2.691,-4.355c0.652,-1.5 0.979,-2.772 0.979,-3.816c0,-1.305 -0.588,-1.957 -1.762,-1.957c-1.37,0 -2.707,0.554 -4.012,1.663c-1.305,1.109 -2.463,2.447 -3.474,4.012c-1.011,1.566 -1.843,3.229 -2.495,4.991c-0.652,1.761 -0.979,3.262 -0.979,4.501Zm26.324,7.046c-1.436,2.283 -3.23,4.305 -5.383,6.067c-1.826,1.5 -4.093,2.87 -6.801,4.11c-2.707,1.239 -5.92,1.859 -9.638,1.859c-2.479,0 -4.763,-0.359 -6.85,-1.076c-2.088,-0.718 -3.882,-1.713 -5.382,-2.985c-1.501,-1.272 -2.675,-2.789 -3.523,-4.55c-0.848,-1.762 -1.272,-3.686 -1.272,-5.774c0,-3.718 0.685,-7.111 2.055,-10.177c1.37,-3.066 3.099,-5.692 5.186,-7.877c2.088,-2.186 4.355,-3.865 6.801,-5.04c2.446,-1.174 4.746,-1.761 6.899,-1.761c1.5,0 2.903,0.294 4.208,0.881c1.304,0.587 2.446,1.353 3.425,2.299c0.978,0.946 1.745,2.039 2.299,3.278c0.555,1.24 0.832,2.512 0.832,3.817c0,1.174 -0.261,2.593 -0.783,4.257c-0.522,1.663 -1.386,3.245 -2.593,4.746c-1.207,1.5 -2.838,2.788 -4.893,3.865c-2.055,1.076 -4.615,1.614 -7.681,1.614c-0.718,0 -1.468,-0.097 -2.251,-0.293c-0.457,-0.065 -0.946,-0.163 -1.468,-0.294c0,2.936 0.848,5.187 2.544,6.752c1.696,1.566 3.719,2.349 6.067,2.349c2.284,0 4.371,-0.473 6.263,-1.419c1.892,-0.946 3.49,-1.973 4.795,-3.082c1.566,-1.305 2.903,-2.806 4.012,-4.502c0.065,-0.196 0.228,-0.424 0.489,-0.685c0.131,-0.13 0.327,-0.277 0.588,-0.44c0.26,-0.163 0.554,-0.245 0.88,-0.245c0.522,0 0.995,0.196 1.419,0.587c0.424,0.392 0.636,0.848 0.636,1.37c0,0.261 -0.049,0.506 -0.147,0.734c-0.097,0.229 -0.212,0.473 -0.342,0.734c-0.131,0.261 -0.261,0.555 -0.391,0.881Z" style="fill:#ff7fad;fill-rule:nonzero;"/><path d="M124.081,57.05c-1.435,2.283 -3.034,4.305 -4.795,6.067c-1.5,1.5 -3.278,2.87 -5.333,4.11c-2.055,1.239 -4.289,1.859 -6.703,1.859c-2.74,0 -5.056,-0.701 -6.948,-2.104c-1.892,-1.402 -3.001,-3.474 -3.327,-6.214c-1.305,1.631 -2.707,3.034 -4.208,4.208c-1.305,1.044 -2.772,1.99 -4.403,2.838c-1.631,0.848 -3.393,1.272 -5.285,1.272c-1.304,0 -2.56,-0.245 -3.767,-0.734c-1.207,-0.489 -2.251,-1.19 -3.131,-2.104c-0.881,-0.913 -1.582,-1.989 -2.104,-3.229c-0.522,-1.239 -0.783,-2.609 -0.783,-4.11c0,-3.523 0.669,-7.013 2.006,-10.47c1.337,-3.458 3.082,-6.573 5.235,-9.346c2.153,-2.772 4.567,-5.007 7.241,-6.703c2.675,-1.696 5.35,-2.544 8.025,-2.544c1.957,0 3.62,0.245 4.99,0.734c1.37,0.489 2.479,1.027 3.327,1.614c0.979,0.718 1.762,1.468 2.349,2.251c0.718,0 1.484,0.082 2.3,0.245c0.815,0.163 1.565,0.424 2.25,0.783c0.685,0.358 1.256,0.831 1.713,1.419c0.456,0.587 0.685,1.304 0.685,2.152c0,0.718 -0.294,1.892 -0.881,3.523c-0.587,1.631 -1.24,3.441 -1.957,5.431c-0.718,1.99 -1.37,4.045 -1.957,6.165c-0.587,2.12 -0.881,3.996 -0.881,5.627c0,0.783 0.245,1.435 0.734,1.957c0.489,0.522 1.158,0.783 2.006,0.783c1.305,0 2.593,-0.424 3.865,-1.272c1.272,-0.848 2.398,-1.827 3.376,-2.936c1.175,-1.174 2.251,-2.577 3.23,-4.208c0.065,-0.196 0.228,-0.424 0.489,-0.685c0.13,-0.13 0.326,-0.277 0.587,-0.44c0.261,-0.163 0.554,-0.245 0.881,-0.245c0.522,0 0.995,0.196 1.419,0.587c0.424,0.392 0.636,0.848 0.636,1.37c0,0.261 -0.049,0.506 -0.147,0.734c-0.098,0.229 -0.212,0.473 -0.343,0.734c-0.13,0.261 -0.261,0.555 -0.391,0.881Zm-22.703,-17.321c0,-1.435 -0.342,-2.495 -1.027,-3.18c-0.685,-0.685 -1.517,-1.027 -2.495,-1.027c-1.436,0 -2.903,0.75 -4.404,2.25c-1.5,1.501 -2.854,3.344 -4.061,5.529c-1.207,2.186 -2.202,4.55 -2.984,7.095c-0.783,2.544 -1.175,4.827 -1.175,6.85c0,2.935 0.946,4.403 2.838,4.403c1.174,0 2.528,-0.783 4.061,-2.348c1.533,-1.566 2.985,-3.491 4.355,-5.774c1.37,-2.283 2.528,-4.681 3.474,-7.192c0.945,-2.512 1.418,-4.714 1.418,-6.606Z" style="fill:#ff7fad;fill-rule:nonzero;"/><path d="M148.545,36.892c-0.261,-0.261 -0.522,-0.522 -0.783,-0.783c-0.261,-0.196 -0.555,-0.375 -0.881,-0.538c-0.326,-0.164 -0.685,-0.245 -1.076,-0.245c-1.566,0 -3.148,0.75 -4.746,2.251c-1.598,1.5 -3.034,3.343 -4.306,5.528c-1.272,2.186 -2.299,4.518 -3.082,6.997c-0.783,2.479 -1.174,4.73 -1.174,6.752c0,1.762 0.326,3.131 0.978,4.11c0.652,0.979 1.533,1.468 2.642,1.468c1.044,0 2.186,-0.408 3.425,-1.223c1.24,-0.816 2.414,-1.745 3.523,-2.789c1.239,-1.174 2.512,-2.544 3.816,-4.11c0.066,-2.936 0.245,-5.823 0.538,-8.66c0.294,-2.838 0.669,-5.758 1.126,-8.758Zm10.47,4.11c2.871,-4.698 5.448,-9.199 7.731,-13.505c0.979,-1.826 1.941,-3.702 2.887,-5.626c0.946,-1.925 1.777,-3.768 2.495,-5.529c0.718,-1.762 1.305,-3.392 1.761,-4.893c0.457,-1.5 0.685,-2.805 0.685,-3.914c0,-1.109 -0.456,-1.664 -1.37,-1.664c-0.848,0 -1.891,1.028 -3.131,3.083c-1.239,2.055 -2.544,4.746 -3.914,8.073c-1.37,3.327 -2.691,7.078 -3.963,11.253c-1.272,4.175 -2.333,8.416 -3.181,12.722Zm0.979,28.084c-1.827,0 -3.49,-0.342 -4.991,-1.027c-1.5,-0.685 -2.789,-1.517 -3.865,-2.496c-1.076,-0.978 -1.924,-2.022 -2.544,-3.131c-0.62,-1.109 -0.962,-2.088 -1.028,-2.936c-1.565,1.827 -3.229,3.425 -4.99,4.795c-1.501,1.24 -3.213,2.349 -5.138,3.327c-1.924,0.979 -3.898,1.468 -5.92,1.468c-1.37,0 -2.724,-0.294 -4.061,-0.881c-1.337,-0.587 -2.528,-1.402 -3.572,-2.446c-1.044,-1.044 -1.892,-2.316 -2.544,-3.816c-0.652,-1.501 -0.979,-3.132 -0.979,-4.893c0,-3.98 0.783,-7.649 2.349,-11.009c1.566,-3.36 3.523,-6.23 5.871,-8.611c2.349,-2.381 4.877,-4.241 7.584,-5.578c2.707,-1.337 5.203,-2.006 7.486,-2.006c0.913,0 1.761,0.082 2.544,0.245c0.783,0.163 1.436,0.342 1.957,0.538c0.653,0.261 1.207,0.522 1.664,0.783c1.109,-3.98 2.446,-7.861 4.012,-11.645c1.566,-3.784 3.278,-7.144 5.137,-10.079c1.86,-2.936 3.833,-5.284 5.921,-7.046c2.087,-1.761 4.273,-2.642 6.556,-2.642c0.979,0 1.973,0.261 2.985,0.783c1.011,0.522 1.924,1.207 2.74,2.055c0.815,0.848 1.484,1.826 2.006,2.935c0.522,1.11 0.782,2.219 0.782,3.328c0,1.174 -0.309,2.642 -0.929,4.403c-0.62,1.761 -1.435,3.67 -2.447,5.725c-1.011,2.055 -2.152,4.191 -3.424,6.409c-1.273,2.218 -2.594,4.404 -3.964,6.556c-3.131,5.024 -6.719,10.373 -10.764,16.049c-0.13,0.848 -0.228,1.68 -0.293,2.495c-0.066,0.816 -0.098,1.615 -0.098,2.398c0,2.74 0.424,4.99 1.272,6.752c0.848,1.761 2.185,2.642 4.012,2.642c1.305,0 2.577,-0.424 3.816,-1.272c1.24,-0.848 2.349,-1.827 3.327,-2.936c1.175,-1.174 2.251,-2.577 3.23,-4.208c0.065,-0.196 0.228,-0.424 0.489,-0.685c0.13,-0.13 0.326,-0.277 0.587,-0.44c0.261,-0.163 0.555,-0.245 0.881,-0.245c0.522,0 0.995,0.196 1.419,0.587c0.424,0.392 0.636,0.848 0.636,1.37c0,0.261 -0.049,0.506 -0.147,0.734c-0.098,0.229 -0.212,0.473 -0.342,0.734c-0.131,0.261 -0.261,0.555 -0.392,0.881c-1.435,2.283 -3.033,4.305 -4.795,6.067c-1.5,1.5 -3.278,2.87 -5.333,4.11c-2.055,1.239 -4.289,1.859 -6.703,1.859Z" style="fill:#ff7fad;fill-rule:nonzero;"/><path d="M185.436,50.004c1.762,0 3.425,-0.489 4.991,-1.468c1.566,-0.978 2.919,-2.169 4.061,-3.571c1.142,-1.403 2.039,-2.854 2.691,-4.355c0.652,-1.5 0.979,-2.772 0.979,-3.816c0,-1.305 -0.588,-1.957 -1.762,-1.957c-1.37,0 -2.707,0.554 -4.012,1.663c-1.305,1.109 -2.463,2.447 -3.474,4.012c-1.011,1.566 -1.843,3.229 -2.495,4.991c-0.652,1.761 -0.979,3.262 -0.979,4.501Zm26.324,7.046c-1.436,2.283 -3.23,4.305 -5.382,6.067c-1.827,1.5 -4.094,2.87 -6.801,4.11c-2.708,1.239 -5.921,1.859 -9.639,1.859c-2.479,0 -4.763,-0.359 -6.85,-1.076c-2.088,-0.718 -3.882,-1.713 -5.382,-2.985c-1.501,-1.272 -2.675,-2.789 -3.523,-4.55c-0.848,-1.762 -1.272,-3.686 -1.272,-5.774c0,-3.718 0.685,-7.111 2.055,-10.177c1.37,-3.066 3.099,-5.692 5.186,-7.877c2.088,-2.186 4.355,-3.865 6.801,-5.04c2.447,-1.174 4.746,-1.761 6.899,-1.761c1.5,0 2.903,0.294 4.208,0.881c1.305,0.587 2.446,1.353 3.425,2.299c0.978,0.946 1.745,2.039 2.299,3.278c0.555,1.24 0.832,2.512 0.832,3.817c0,1.174 -0.261,2.593 -0.783,4.257c-0.522,1.663 -1.386,3.245 -2.593,4.746c-1.207,1.5 -2.838,2.788 -4.893,3.865c-2.055,1.076 -4.615,1.614 -7.681,1.614c-0.718,0 -1.468,-0.097 -2.251,-0.293c-0.457,-0.065 -0.946,-0.163 -1.468,-0.294c0,2.936 0.848,5.187 2.544,6.752c1.697,1.566 3.719,2.349 6.067,2.349c2.284,0 4.371,-0.473 6.263,-1.419c1.892,-0.946 3.49,-1.973 4.795,-3.082c1.566,-1.305 2.903,-2.806 4.012,-4.502c0.065,-0.196 0.229,-0.424 0.489,-0.685c0.131,-0.13 0.327,-0.277 0.588,-0.44c0.261,-0.163 0.554,-0.245 0.88,-0.245c0.522,0 0.995,0.196 1.419,0.587c0.424,0.392 0.636,0.848 0.636,1.37c0,0.261 -0.049,0.506 -0.147,0.734c-0.097,0.229 -0.212,0.473 -0.342,0.734c-0.13,0.261 -0.261,0.555 -0.391,0.881Z" style="fill:#ff7fad;fill-rule:nonzero;"/><path d="M233.386,59.105c0,1.109 0.293,1.957 0.88,2.544c0.587,0.587 1.37,0.881 2.349,0.881c1.305,0 2.593,-0.424 3.865,-1.272c1.272,-0.848 2.398,-1.827 3.376,-2.936c1.174,-1.174 2.251,-2.577 3.229,-4.208c0.066,-0.196 0.229,-0.424 0.49,-0.685c0.13,-0.13 0.326,-0.277 0.587,-0.44c0.261,-0.163 0.554,-0.245 0.881,-0.245c0.521,0 0.994,0.196 1.418,0.587c0.424,0.392 0.637,0.848 0.637,1.37c0,0.261 -0.049,0.506 -0.147,0.734c-0.098,0.229 -0.212,0.473 -0.343,0.734c-0.13,0.261 -0.261,0.555 -0.391,0.881c-1.435,2.283 -3.034,4.305 -4.795,6.067c-1.501,1.5 -3.278,2.87 -5.333,4.11c-2.055,1.239 -4.29,1.859 -6.703,1.859c-1.892,0 -3.588,-0.261 -5.089,-0.783c-1.5,-0.522 -2.805,-1.223 -3.914,-2.104c-1.109,-0.88 -1.957,-1.908 -2.544,-3.082c-0.587,-1.174 -0.881,-2.447 -0.881,-3.816c0,-2.153 0.326,-4.176 0.979,-6.068c0.652,-1.891 1.353,-3.62 2.103,-5.186c0.751,-1.566 1.452,-2.952 2.104,-4.159c0.653,-1.207 0.979,-2.202 0.979,-2.984c0,-0.522 -0.31,-0.914 -0.93,-1.175c-0.619,-0.261 -1.288,-0.489 -2.006,-0.685c-0.848,-0.195 -1.826,-0.358 -2.935,-0.489c-1.892,4.762 -3.686,8.66 -5.383,11.694c-1.696,3.033 -3.066,5.3 -4.109,6.801c-0.131,0.196 -0.376,0.489 -0.734,0.881c-0.359,0.391 -0.832,0.587 -1.419,0.587c-0.522,0 -0.995,-0.212 -1.419,-0.636c-0.424,-0.424 -0.636,-0.897 -0.636,-1.419c0,-0.457 0.147,-0.897 0.44,-1.321c0.294,-0.424 0.506,-0.767 0.636,-1.028c0.914,-1.305 2.202,-3.376 3.865,-6.214c1.664,-2.837 3.213,-6.572 4.649,-11.204c-0.653,-0.457 -1.207,-1.044 -1.664,-1.762c-0.391,-0.587 -0.75,-1.337 -1.076,-2.25c-0.327,-0.914 -0.49,-1.99 -0.49,-3.229c0,-0.979 0.18,-1.909 0.539,-2.789c0.358,-0.881 0.831,-1.648 1.418,-2.3c0.588,-0.652 1.207,-1.174 1.86,-1.566c0.652,-0.391 1.272,-0.587 1.859,-0.587c0.652,0 1.337,0.18 2.055,0.538c0.718,0.359 1.37,0.783 1.957,1.273c0.587,0.489 1.077,1.043 1.468,1.663c0.391,0.62 0.587,1.158 0.587,1.615c0,1.304 -0.212,2.381 -0.636,3.229c-0.424,0.848 -0.636,1.663 -0.636,2.446c0,0.718 0.391,1.24 1.174,1.566c0.783,0.326 1.762,0.489 2.936,0.489c1.109,0 2.039,-0.065 2.789,-0.195c0.75,-0.131 1.419,-0.278 2.006,-0.441c0.587,-0.163 1.141,-0.31 1.663,-0.44c0.522,-0.131 1.077,-0.196 1.664,-0.196c1.174,0 2.136,0.457 2.887,1.37c0.75,0.913 1.125,2.023 1.125,3.327c0,1.109 -0.375,2.43 -1.125,3.963c-0.751,1.533 -1.582,3.213 -2.496,5.04c-0.913,1.827 -1.745,3.735 -2.495,5.725c-0.75,1.989 -1.125,3.963 -1.125,5.92Z" style="fill:#ff7fad;fill-rule:nonzero;"/><path d="M255.99,64.878c-0.13,1.305 -0.261,2.642 -0.391,4.012c-0.131,1.175 -0.228,2.463 -0.294,3.866c-0.065,1.402 -0.098,2.756 -0.098,4.061c0,3.849 0.441,6.523 1.322,8.024c0.88,1.5 1.745,2.25 2.593,2.251c0.587,-0.001 1.092,-0.213 1.516,-0.637c0.424,-0.424 0.767,-0.962 1.028,-1.614c0.261,-0.653 0.457,-1.386 0.587,-2.202c0.131,-0.815 0.196,-1.615 0.196,-2.397c0,-2.088 -0.343,-4.078 -1.028,-5.97c-0.685,-1.891 -1.419,-3.522 -2.201,-4.892c-0.979,-1.631 -2.055,-3.132 -3.23,-4.502Zm23.975,-56.365c0,-1.304 -0.685,-1.957 -2.055,-1.957c-0.913,0 -2.039,1.028 -3.376,3.083c-1.337,2.055 -2.773,4.746 -4.306,8.073c-1.533,3.327 -3.05,7.094 -4.55,11.302c-1.5,4.208 -2.87,8.465 -4.11,12.77c1.044,-0.782 2.234,-2.022 3.572,-3.718c1.337,-1.696 2.691,-3.605 4.061,-5.725c1.37,-2.12 2.691,-4.371 3.963,-6.752c1.272,-2.381 2.414,-4.664 3.425,-6.85c1.011,-2.185 1.827,-4.191 2.446,-6.018c0.62,-1.826 0.93,-3.229 0.93,-4.208Zm0.293,48.537c-0.652,0.913 -1.451,1.941 -2.397,3.082c-0.946,1.142 -2.088,2.202 -3.425,3.181c-1.337,0.978 -2.936,1.81 -4.795,2.495c-1.859,0.685 -4.028,1.027 -6.507,1.027c1.044,0.914 1.957,2.023 2.74,3.327c0.717,1.11 1.37,2.496 1.957,4.159c0.587,1.664 0.881,3.539 0.881,5.627c0,1.24 -0.229,2.528 -0.685,3.865c-0.457,1.338 -1.109,2.577 -1.958,3.719c-0.848,1.141 -1.891,2.071 -3.131,2.789c-1.239,0.717 -2.642,1.076 -4.208,1.076c-1.435,0 -3.001,-0.277 -4.697,-0.832c-1.696,-0.554 -3.262,-1.484 -4.697,-2.789c-1.435,-1.304 -2.642,-3.017 -3.621,-5.137c-0.978,-2.12 -1.467,-4.746 -1.467,-7.877c0,-5.285 0.44,-10.813 1.321,-16.587c0.88,-5.773 2.071,-11.433 3.571,-16.978c1.501,-5.545 3.279,-10.813 5.334,-15.803c2.055,-4.991 4.256,-9.362 6.605,-13.113c2.348,-3.751 4.795,-6.736 7.339,-8.954c2.544,-2.218 5.056,-3.327 7.535,-3.327c1.109,0 2.202,0.277 3.278,0.832c1.076,0.554 2.039,1.272 2.887,2.153c0.848,0.88 1.533,1.826 2.055,2.837c0.522,1.012 0.783,1.941 0.783,2.789c0,1.37 -0.392,3.132 -1.175,5.284c-0.783,2.153 -1.843,4.518 -3.18,7.095c-1.337,2.577 -2.87,5.268 -4.599,8.073c-1.729,2.805 -3.556,5.496 -5.48,8.073c-1.925,2.577 -3.882,4.975 -5.871,7.193c-1.99,2.218 -3.866,4.044 -5.627,5.48c-0.522,1.5 -0.946,3.098 -1.272,4.794c-0.326,1.697 -0.555,3.393 -0.685,5.089c0.456,0.587 1.011,1.076 1.663,1.468c0.522,0.326 1.175,0.636 1.957,0.929c0.783,0.294 1.697,0.441 2.74,0.441c1.696,0 3.23,-0.261 4.6,-0.783c1.37,-0.522 2.609,-1.191 3.718,-2.006c1.109,-0.816 2.104,-1.729 2.985,-2.74c0.88,-1.011 1.68,-1.974 2.397,-2.887c0.065,-0.196 0.228,-0.424 0.489,-0.685c0.131,-0.13 0.327,-0.277 0.588,-0.44c0.26,-0.163 0.554,-0.245 0.88,-0.245c0.522,0 0.995,0.196 1.419,0.587c0.424,0.392 0.636,0.848 0.636,1.37c0,0.261 -0.049,0.506 -0.147,0.734c-0.097,0.229 -0.212,0.473 -0.342,0.734c-0.131,0.261 -0.261,0.555 -0.392,0.881Z" style="fill:#ff7fad;fill-rule:nonzero;"/><path d="M288.87,50.004c1.761,0 3.425,-0.489 4.99,-1.468c1.566,-0.978 2.92,-2.169 4.061,-3.571c1.142,-1.403 2.039,-2.854 2.691,-4.355c0.653,-1.5 0.979,-2.772 0.979,-3.816c0,-1.305 -0.587,-1.957 -1.761,-1.957c-1.37,0 -2.708,0.554 -4.012,1.663c-1.305,1.109 -2.463,2.447 -3.474,4.012c-1.012,1.566 -1.843,3.229 -2.496,4.991c-0.652,1.761 -0.978,3.262 -0.978,4.501Zm26.323,7.046c-1.435,2.283 -3.229,4.305 -5.382,6.067c-1.827,1.5 -4.094,2.87 -6.801,4.11c-2.707,1.239 -5.92,1.859 -9.639,1.859c-2.479,0 -4.762,-0.359 -6.85,-1.076c-2.087,-0.718 -3.881,-1.713 -5.382,-2.985c-1.5,-1.272 -2.675,-2.789 -3.523,-4.55c-0.848,-1.762 -1.272,-3.686 -1.272,-5.774c0,-3.718 0.685,-7.111 2.055,-10.177c1.37,-3.066 3.099,-5.692 5.187,-7.877c2.087,-2.186 4.354,-3.865 6.801,-5.04c2.446,-1.174 4.746,-1.761 6.898,-1.761c1.501,0 2.903,0.294 4.208,0.881c1.305,0.587 2.447,1.353 3.425,2.299c0.979,0.946 1.745,2.039 2.3,3.278c0.554,1.24 0.831,2.512 0.831,3.817c0,1.174 -0.26,2.593 -0.782,4.257c-0.522,1.663 -1.387,3.245 -2.594,4.746c-1.206,1.5 -2.837,2.788 -4.892,3.865c-2.055,1.076 -4.616,1.614 -7.682,1.614c-0.718,0 -1.468,-0.097 -2.251,-0.293c-0.456,-0.065 -0.946,-0.163 -1.467,-0.294c0,2.936 0.848,5.187 2.544,6.752c1.696,1.566 3.718,2.349 6.067,2.349c2.283,0 4.371,-0.473 6.263,-1.419c1.891,-0.946 3.49,-1.973 4.794,-3.082c1.566,-1.305 2.904,-2.806 4.013,-4.502c0.065,-0.196 0.228,-0.424 0.489,-0.685c0.13,-0.13 0.326,-0.277 0.587,-0.44c0.261,-0.163 0.554,-0.245 0.881,-0.245c0.522,0 0.995,0.196 1.419,0.587c0.424,0.392 0.636,0.848 0.636,1.37c0,0.261 -0.049,0.506 -0.147,0.734c-0.098,0.229 -0.212,0.473 -0.343,0.734c-0.13,0.261 -0.261,0.555 -0.391,0.881Z" style="fill:#ff7fad;fill-rule:nonzero;"/><path d="M323.804,50.004c1.762,0 3.425,-0.489 4.991,-1.468c1.566,-0.978 2.919,-2.169 4.061,-3.571c1.142,-1.403 2.039,-2.854 2.691,-4.355c0.652,-1.5 0.978,-2.772 0.978,-3.816c0,-1.305 -0.587,-1.957 -1.761,-1.957c-1.37,0 -2.707,0.554 -4.012,1.663c-1.305,1.109 -2.463,2.447 -3.474,4.012c-1.011,1.566 -1.843,3.229 -2.495,4.991c-0.653,1.761 -0.979,3.262 -0.979,4.501Zm26.323,7.046c-1.435,2.283 -3.229,4.305 -5.382,6.067c-1.826,1.5 -4.093,2.87 -6.801,4.11c-2.707,1.239 -5.92,1.859 -9.638,1.859c-2.479,0 -4.763,-0.359 -6.85,-1.076c-2.088,-0.718 -3.882,-1.713 -5.382,-2.985c-1.501,-1.272 -2.675,-2.789 -3.523,-4.55c-0.848,-1.762 -1.272,-3.686 -1.272,-5.774c0,-3.718 0.685,-7.111 2.055,-10.177c1.37,-3.066 3.098,-5.692 5.186,-7.877c2.088,-2.186 4.355,-3.865 6.801,-5.04c2.446,-1.174 4.746,-1.761 6.899,-1.761c1.5,0 2.903,0.294 4.208,0.881c1.304,0.587 2.446,1.353 3.425,2.299c0.978,0.946 1.745,2.039 2.299,3.278c0.555,1.24 0.832,2.512 0.832,3.817c0,1.174 -0.261,2.593 -0.783,4.257c-0.522,1.663 -1.386,3.245 -2.593,4.746c-1.207,1.5 -2.838,2.788 -4.893,3.865c-2.055,1.076 -4.615,1.614 -7.682,1.614c-0.717,0 -1.467,-0.097 -2.25,-0.293c-0.457,-0.065 -0.946,-0.163 -1.468,-0.294c0,2.936 0.848,5.187 2.544,6.752c1.696,1.566 3.719,2.349 6.067,2.349c2.284,0 4.371,-0.473 6.263,-1.419c1.892,-0.946 3.49,-1.973 4.795,-3.082c1.566,-1.305 2.903,-2.806 4.012,-4.502c0.065,-0.196 0.228,-0.424 0.489,-0.685c0.131,-0.13 0.326,-0.277 0.587,-0.44c0.261,-0.163 0.555,-0.245 0.881,-0.245c0.522,0 0.995,0.196 1.419,0.587c0.424,0.392 0.636,0.848 0.636,1.37c0,0.261 -0.049,0.506 -0.147,0.734c-0.098,0.229 -0.212,0.473 -0.342,0.734c-0.131,0.261 -0.261,0.555 -0.392,0.881Z" style="fill:#ff7fad;fill-rule:nonzero;"/><path d="M374.591,36.892c-0.261,-0.261 -0.522,-0.522 -0.783,-0.783c-0.26,-0.196 -0.554,-0.375 -0.88,-0.538c-0.326,-0.164 -0.685,-0.245 -1.077,-0.245c-1.565,0 -3.147,0.75 -4.746,2.251c-1.598,1.5 -3.033,3.343 -4.305,5.528c-1.272,2.186 -2.3,4.518 -3.083,6.997c-0.783,2.479 -1.174,4.73 -1.174,6.752c0,1.762 0.326,3.131 0.979,4.11c0.652,0.979 1.533,1.468 2.642,1.468c1.043,0 2.185,-0.408 3.425,-1.223c1.239,-0.816 2.413,-1.745 3.522,-2.789c1.24,-1.174 2.512,-2.544 3.817,-4.11c0.065,-2.936 0.244,-5.823 0.538,-8.66c0.294,-2.838 0.669,-5.758 1.125,-8.758Zm10.471,4.11c2.87,-4.698 5.447,-9.199 7.73,-13.505c0.979,-1.826 1.941,-3.702 2.887,-5.626c0.946,-1.925 1.778,-3.768 2.496,-5.529c0.717,-1.762 1.304,-3.392 1.761,-4.893c0.457,-1.5 0.685,-2.805 0.685,-3.914c0,-1.109 -0.457,-1.664 -1.37,-1.664c-0.848,0 -1.892,1.028 -3.131,3.083c-1.24,2.055 -2.545,4.746 -3.915,8.073c-1.37,3.327 -2.691,7.078 -3.963,11.253c-1.272,4.175 -2.332,8.416 -3.18,12.722Zm0.978,28.084c-1.826,0 -3.49,-0.342 -4.99,-1.027c-1.501,-0.685 -2.789,-1.517 -3.866,-2.496c-1.076,-0.978 -1.924,-2.022 -2.544,-3.131c-0.62,-1.109 -0.962,-2.088 -1.027,-2.936c-1.566,1.827 -3.229,3.425 -4.991,4.795c-1.5,1.24 -3.213,2.349 -5.137,3.327c-1.925,0.979 -3.898,1.468 -5.921,1.468c-1.37,0 -2.723,-0.294 -4.061,-0.881c-1.337,-0.587 -2.528,-1.402 -3.571,-2.446c-1.044,-1.044 -1.892,-2.316 -2.545,-3.816c-0.652,-1.501 -0.978,-3.132 -0.978,-4.893c0,-3.98 0.783,-7.649 2.348,-11.009c1.566,-3.36 3.523,-6.23 5.872,-8.611c2.348,-2.381 4.876,-4.241 7.584,-5.578c2.707,-1.337 5.202,-2.006 7.486,-2.006c0.913,0 1.761,0.082 2.544,0.245c0.783,0.163 1.435,0.342 1.957,0.538c0.652,0.261 1.207,0.522 1.663,0.783c1.109,-3.98 2.447,-7.861 4.013,-11.645c1.565,-3.784 3.278,-7.144 5.137,-10.079c1.859,-2.936 3.833,-5.284 5.92,-7.046c2.088,-1.761 4.273,-2.642 6.557,-2.642c0.978,0 1.973,0.261 2.984,0.783c1.011,0.522 1.925,1.207 2.74,2.055c0.816,0.848 1.484,1.826 2.006,2.935c0.522,1.11 0.783,2.219 0.783,3.328c0,1.174 -0.31,2.642 -0.93,4.403c-0.619,1.761 -1.435,3.67 -2.446,5.725c-1.011,2.055 -2.153,4.191 -3.425,6.409c-1.272,2.218 -2.593,4.404 -3.963,6.556c-3.132,5.024 -6.72,10.373 -10.764,16.049c-0.131,0.848 -0.229,1.68 -0.294,2.495c-0.065,0.816 -0.098,1.615 -0.098,2.398c0,2.74 0.424,4.99 1.272,6.752c0.849,1.761 2.186,2.642 4.013,2.642c1.304,0 2.576,-0.424 3.816,-1.272c1.239,-0.848 2.348,-1.827 3.327,-2.936c1.174,-1.174 2.251,-2.577 3.229,-4.208c0.065,-0.196 0.229,-0.424 0.489,-0.685c0.131,-0.13 0.327,-0.277 0.588,-0.44c0.261,-0.163 0.554,-0.245 0.88,-0.245c0.522,0 0.995,0.196 1.419,0.587c0.424,0.392 0.636,0.848 0.636,1.37c0,0.261 -0.049,0.506 -0.146,0.734c-0.098,0.229 -0.213,0.473 -0.343,0.734c-0.13,0.261 -0.261,0.555 -0.391,0.881c-1.436,2.283 -3.034,4.305 -4.795,6.067c-1.501,1.5 -3.279,2.87 -5.333,4.11c-2.055,1.239 -4.29,1.859 -6.704,1.859Z" style="fill:#ff7fad;fill-rule:nonzero;"/><path d="M411.483,50.004c1.761,0 3.425,-0.489 4.991,-1.468c1.565,-0.978 2.919,-2.169 4.061,-3.571c1.141,-1.403 2.038,-2.854 2.691,-4.355c0.652,-1.5 0.978,-2.772 0.978,-3.816c0,-1.305 -0.587,-1.957 -1.761,-1.957c-1.37,0 -2.708,0.554 -4.012,1.663c-1.305,1.109 -2.463,2.447 -3.474,4.012c-1.011,1.566 -1.843,3.229 -2.496,4.991c-0.652,1.761 -0.978,3.262 -0.978,4.501Zm26.323,7.046c-1.435,2.283 -3.229,4.305 -5.382,6.067c-1.827,1.5 -4.094,2.87 -6.801,4.11c-2.707,1.239 -5.92,1.859 -9.639,1.859c-2.479,0 -4.762,-0.359 -6.85,-1.076c-2.087,-0.718 -3.881,-1.713 -5.382,-2.985c-1.5,-1.272 -2.674,-2.789 -3.523,-4.55c-0.848,-1.762 -1.272,-3.686 -1.272,-5.774c0,-3.718 0.685,-7.111 2.055,-10.177c1.37,-3.066 3.099,-5.692 5.187,-7.877c2.087,-2.186 4.354,-3.865 6.801,-5.04c2.446,-1.174 4.746,-1.761 6.898,-1.761c1.501,0 2.904,0.294 4.208,0.881c1.305,0.587 2.447,1.353 3.425,2.299c0.979,0.946 1.745,2.039 2.3,3.278c0.554,1.24 0.832,2.512 0.832,3.817c0,1.174 -0.261,2.593 -0.783,4.257c-0.522,1.663 -1.387,3.245 -2.593,4.746c-1.207,1.5 -2.838,2.788 -4.893,3.865c-2.055,1.076 -4.616,1.614 -7.682,1.614c-0.717,0 -1.468,-0.097 -2.251,-0.293c-0.456,-0.065 -0.946,-0.163 -1.467,-0.294c0,2.936 0.848,5.187 2.544,6.752c1.696,1.566 3.718,2.349 6.067,2.349c2.283,0 4.371,-0.473 6.263,-1.419c1.892,-0.946 3.49,-1.973 4.795,-3.082c1.565,-1.305 2.903,-2.806 4.012,-4.502c0.065,-0.196 0.228,-0.424 0.489,-0.685c0.13,-0.13 0.326,-0.277 0.587,-0.44c0.261,-0.163 0.555,-0.245 0.881,-0.245c0.522,0 0.995,0.196 1.419,0.587c0.424,0.392 0.636,0.848 0.636,1.37c0,0.261 -0.049,0.506 -0.147,0.734c-0.098,0.229 -0.212,0.473 -0.343,0.734c-0.13,0.261 -0.26,0.555 -0.391,0.881Z" style="fill:#ff7fad;fill-rule:nonzero;"/><path d="M459.432,59.105c0,1.109 0.294,1.957 0.881,2.544c0.587,0.587 1.37,0.881 2.348,0.881c1.305,0 2.594,-0.424 3.866,-1.272c1.272,-0.848 2.397,-1.827 3.376,-2.936c1.174,-1.174 2.25,-2.577 3.229,-4.208c0.065,-0.196 0.228,-0.424 0.489,-0.685c0.131,-0.13 0.326,-0.277 0.587,-0.44c0.261,-0.163 0.555,-0.245 0.881,-0.245c0.522,0 0.995,0.196 1.419,0.587c0.424,0.392 0.636,0.848 0.636,1.37c0,0.261 -0.049,0.506 -0.147,0.734c-0.098,0.229 -0.212,0.473 -0.342,0.734c-0.131,0.261 -0.261,0.555 -0.392,0.881c-1.435,2.283 -3.033,4.305 -4.795,6.067c-1.5,1.5 -3.278,2.87 -5.333,4.11c-2.055,1.239 -4.289,1.859 -6.703,1.859c-1.892,0 -3.588,-0.261 -5.088,-0.783c-1.501,-0.522 -2.806,-1.223 -3.915,-2.104c-1.109,-0.88 -1.957,-1.908 -2.544,-3.082c-0.587,-1.174 -0.881,-2.447 -0.881,-3.816c0,-2.153 0.327,-4.176 0.979,-6.068c0.652,-1.891 1.354,-3.62 2.104,-5.186c0.75,-1.566 1.451,-2.952 2.104,-4.159c0.652,-1.207 0.978,-2.202 0.978,-2.984c0,-0.522 -0.31,-0.914 -0.929,-1.175c-0.62,-0.261 -1.289,-0.489 -2.006,-0.685c-0.848,-0.195 -1.827,-0.358 -2.936,-0.489c-1.892,4.762 -3.686,8.66 -5.382,11.694c-1.696,3.033 -3.066,5.3 -4.11,6.801c-0.13,0.196 -0.375,0.489 -0.734,0.881c-0.359,0.391 -0.832,0.587 -1.419,0.587c-0.522,0 -0.995,-0.212 -1.419,-0.636c-0.424,-0.424 -0.636,-0.897 -0.636,-1.419c0,-0.457 0.147,-0.897 0.441,-1.321c0.293,-0.424 0.505,-0.767 0.636,-1.028c0.913,-1.305 2.201,-3.376 3.865,-6.214c1.664,-2.837 3.213,-6.572 4.648,-11.204c-0.652,-0.457 -1.207,-1.044 -1.663,-1.762c-0.392,-0.587 -0.751,-1.337 -1.077,-2.25c-0.326,-0.914 -0.489,-1.99 -0.489,-3.229c0,-0.979 0.179,-1.909 0.538,-2.789c0.359,-0.881 0.832,-1.648 1.419,-2.3c0.587,-0.652 1.207,-1.174 1.859,-1.566c0.653,-0.391 1.272,-0.587 1.859,-0.587c0.653,0 1.338,0.18 2.055,0.538c0.718,0.359 1.37,0.783 1.958,1.273c0.587,0.489 1.076,1.043 1.467,1.663c0.392,0.62 0.588,1.158 0.588,1.615c0,1.304 -0.212,2.381 -0.637,3.229c-0.424,0.848 -0.636,1.663 -0.636,2.446c0,0.718 0.392,1.24 1.175,1.566c0.783,0.326 1.761,0.489 2.935,0.489c1.109,0 2.039,-0.065 2.789,-0.195c0.75,-0.131 1.419,-0.278 2.006,-0.441c0.587,-0.163 1.142,-0.31 1.664,-0.44c0.522,-0.131 1.076,-0.196 1.663,-0.196c1.175,0 2.137,0.457 2.887,1.37c0.75,0.913 1.125,2.023 1.125,3.327c0,1.109 -0.375,2.43 -1.125,3.963c-0.75,1.533 -1.582,3.213 -2.495,5.04c-0.914,1.827 -1.745,3.735 -2.496,5.725c-0.75,1.989 -1.125,3.963 -1.125,5.92Z" style="fill:#ff7fad;fill-rule:nonzero;"/></svg>