<svg id="Layer_1" data-name="Layer 1" xmlns="http://www.w3.org/2000/svg" viewBox="0 0 512 512"><title>rss</title><path d="M47.3,430.07c.07.08,6.82-3.94-3.08,4.66l-7.31,7.64c-1.46,2.32-2.84,4.75-4.15,7.22l-6,4.76c.22-.35-2.07-.27-9.36-11.44A60,60,0,0,1,9.54,412.4c0-14.93,6.43-33.56,20.67-49.73-.33,1.48,20.58-33.68,69.33-34.32-1,.94,24.09-2.83,50.68,21.91,12.42,12.57,22.47,29.76,27.58,50.46,5.17,19.62,6.38,47-6.81,69.71-12.81,22.49-34,34-53,38.73-19.31,4.48-38,3.55-54.12-2-16-5.25-29.7-15.74-36.75-27.77s-8.16-22.27-8-25.8c0-.81.15,17.69,15.85,34.47C50.46,504.39,76,512.46,100.9,510.92c24.86-1.25,51.32-13.5,65.66-34.2,14.52-20.79,14-41,13.78-44.11-.2-.42.72,15.08-9.47,34.81-10.11,20.16-33.67,35.85-57.2,39.57-23.62,4.33-48.26-.29-65.43-12.18-17.89-11.73-23.13-30.9-22.74-34.64a50.8,50.8,0,0,0,16.36,27c13.73,12.49,36.14,19.44,58.5,17.79,22.29-1.25,45.51-12,58.5-29.17,13.41-17.2,13.65-35.36,12.88-39.32-.4-.27.11,12.08-8.66,27.16-8.07,15.52-26.63,28.68-46.33,32.82C97,501,76.07,498.12,61.23,490.36c-15.25-7.52-22.3-20.08-23-24.66A44.41,44.41,0,0,0,47,478c5.71,5.77,13.77,9.91,17.35,10.79a61.87,61.87,0,0,1-10.84-7.25,65.37,65.37,0,0,0,18.61,8.2A85.08,85.08,0,0,0,83.53,493a66.25,66.25,0,0,1-15.44-5.32c-7.56-3.58-13.86-9.34-14.09-10.84,0,0-3.12-1.45-.59.86,2.42,1.65,11,11,39,11.39-.06-.3,8.33,1.68,23.62-2,13.92-3.25,40.65-15.52,44.74-49.11,2-15.9-2.67-34.23-11.39-50.61-9-16.31-25.4-29.54-44.68-30.28-19-.93-39.43,8.6-53.27,24.84-6.76,8-11.81,18-12.49,27.06S41.47,424.46,47.3,430.07Z" fill="#231f20"/><path d="M282.12,469.15s-.39,3.06-.34-2.12l-.14-4.17-.38-3,.11-3c0,.05,1-1,12.53-2.14a30.67,30.67,0,0,1,10.68-1c0-.1,10.9,1.31,21.54,1.38,10.72.37,21.35-2.64,23.13-2.22,0,1.09-25.54,3-27.31,2.56.1,1,24.71-.1,27-.39,0,1-24.17,2.76-26.45,3.84,0,.77,22.85.59,26.1.44,0,0-4.54.52-5.64,1.08l2.16,0a19.13,19.13,0,0,1-3.32.74l-2-.15c0,.12,5.48.44,6,.88-.06-.24,2.28-1-7.22,1C338.58,464.29,315.55,459.83,282.12,469.15Z" fill="#231f20"/><path d="M20.2,269.76s-3.38,7.71-1-5.89l1-11.07-.7-8.4,1.91-7.83c.19.62,5.2-2.74,67,8-.24.45,26,1.14,58.39,18.4a233.32,233.32,0,0,1,34.58,23.34c20.14,16.39,42.3,39.1,63.54,66.92,20.79,27.69,37.49,61.11,44.37,90.06,7.48,28.8,6.35,51.15,5.4,56.28.31.49,1.57-45.63-16.76-87.57-17-42.21-46.58-75.79-50.5-78.75-.29.07,26.4,29.67,44,69C290.46,441.3,292,488,289.67,494c0,.37.4-41.08-16.67-79.24-15.85-38.44-43.46-69.83-49.54-72.62-.17,0,22.6,26.41,38.22,60.69,16.77,34,20.06,74.8,17.59,83.11.74,0-1.6-26.76-4.28-33.53l1.23,12.52a195.65,195.65,0,0,0-4.65-19.32,109.38,109.38,0,0,0-2.5-11.29c.93-.19,5.52,31,3.75,33.32,0,0,1,3.33,1-.14-.64-3.27-1-14.07-11.35-39.55-.43.76-7.73-33.66-45.24-76-18.61-20.55-43.24-45.07-76.76-60.83C106.85,274.87,66.12,270.58,20.2,269.76Z" fill="#231f20"/><path d="M9,190.37s-2.77.54,1.78-.86l3.63-1.25L17,187.1l2.68-.72c-.11.05,1.2.57,4.53,11.07a25.37,25.37,0,0,1,2.63,10c1,.54-1.06,41.57-2.74,44-.15.08,3.07-25,2.25-26.83.15.2-2.69,24.25-4.06,26-.14.07,2.89-23.24.92-25.51.13.1-2.74,21.58-4.57,24.14a28,28,0,0,0,.62-5.24l-.62,1.9.15-3.1.5-1.78s-1.46,4.81-2.13,5.15c0,0,.72,2.24.68-6.56C17,240.59,25.45,216.79,9,190.37Z" fill="#231f20"/><path d="M21.44,200.16c-.11.07,1.94,8-3.62-4.43-1.74-3.2-3.48-6.29-5.36-9.37a64.26,64.26,0,0,0-6-5.55l-3-7.39c.08.34,1.36-3,14.89-8.58,13.46-5.07,39.22-8.23,80.34,2.56-.06-.1,34,5.49,74.82,26.36,0,.13,18.53,9.11,45.48,25.9,26.7,16.78,63,43.19,91.4,80.7,28.89,37.23,45.64,85.77,49.82,124.24,4.27,38.66.4,66.65-1.29,73.18-.3.59,9.06-57.58-8.46-116.18-16-59.46-59-104.42-64.36-107.6-.54-.29,39.11,37.92,57.69,93.38C364,422.31,357,482.5,354.7,489.89c-.66.42,7-52.76-9.43-106.23-15-54.21-54.09-96.46-62-99.81-.26-.34,33.08,33.58,50,81.56,18.39,47.51,15.23,101.71,12,112.28.64.08,1.9-35.63-.47-45.06,0,5.59.12,11.12.05,16.66-.92-8.8-1.12-17.72-2.83-26.41-.57-5.1-.73-10.32-1.67-15.35,1-.05,3.25,41.71.68,44.57,0,0,.68,4.63,1,0-.19-4.46.93-18.9-8.25-54.65,0,0-1.68-10.92-8.86-30.06A212.51,212.51,0,0,0,278,294.52c-25.42-27.13-63-51.3-108.44-71.6-22.72-10-47.55-19.27-73.95-25.3-13.16-2.89-26.79-5.17-40.12-5.25C42.41,192,28.72,194.51,21.44,200.16Z" fill="#231f20"/><path d="M10.09,31.13s-2.68.89,1.68-1.08l3.46-1.72,2.45-1.53,2.58-1.08c-.19.08,1.43.39,5.6,11.51a26.77,26.77,0,0,1,3,10.72c1,1-1,43.46-1.41,45.68-.61.2,1.55-25.43,1-27.53-.07.34-2.28,25.09-2.94,26.95-.59.1,1.5-24-.22-26.44,0,.13-2.42,22.5-3.54,25.46a39.34,39.34,0,0,0,.13-5.55l-.47,2.05c-.11-1.08,0-2.17,0-3.27l.4-1.9S20.56,88.58,20,89c.1,0,.74,2.31.28-7a89.93,89.93,0,0,0,1-15.08C21.21,57.83,19.89,42.43,10.09,31.13Z" fill="#231f20"/><path d="M24.59,116.13s-4,7.74-2.27-6L22.25,99,20,90.46l1.76-7.88c-.12,1.57,9-5.65,102.64,14.29-.17.22,38.48,5.27,86.51,28.44-1.24.08,91,39.47,154.33,126.82,31.65,42.51,53.57,94.15,63.28,136.53,10.46,42.31,11.2,74.46,10.84,82.18,0,.37-1.87-65.82-26.26-129.06-22.51-64.23-68.38-116.11-74.5-120.41-.2-.35,41.93,44.82,66.1,105,26,59.41,30.42,127.21,29.12,136.38-.25.32-2.79-60.29-25.69-118.5C387,285.12,344.68,236.37,335.95,231.54c-.09-.32,35.85,39.74,58,92.74,23.58,52.43,29.91,113.59,28.54,126.52.76-.07-4.37-40.85-7.93-51.27,1,6.33,1.75,12.67,2.63,19-2.08-10-4.14-20-7-29.79-1.08-5.82-2.46-11.58-4-17.27,1.07-.24,9.41,47.21,7.78,50.83,0,0,1.42,5.22,1-.1-1.14-5.08-2.23-21.63-16.72-61.73-1.09,1.45-10.13-52.95-67.65-118.12C274.65,177.11,162.34,117.51,24.59,116.13Z" fill="#231f20"/><path d="M439.38,477.9s.18,3.11-.64-2l-.82-4.06-.9-2.95-.4-3c-.06.24,1.13-1.78,13.52-3.7a31.07,31.07,0,0,1,11.68-1.35,163.31,163.31,0,0,1,24.3,4.24c12.28,2.84,24.63,9.34,25.87,11.43.39-1.63-28.51-13.73-30.71-12.15.13-.88,28,9.37,28.93,13.43.43-1.31-26-12.52-28.89-9.93.13-.66,24.43,8.47,25.89,12.76,0,.05-4.06-2.89-5.38-3l1.86,1.43c-1.07-.56-2.21-.94-3.31-1.43l-1.8-1.2s4.85,3.33,4.87,4.28c-.05.13,2.74-.08-6.82-3.22,0,.07-5.28-3.42-15.62-5.18C471.17,470.65,454.65,469.91,439.38,477.9Z" fill="#231f20"/><path d="M10.27,35.93s-3.48,8.41-3.82-5.42l-2.05-11L0,11.58.77,3.45c0,.15,2.66-1,20.36-2.42C38.79,0,71.87-2.44,131.47,7.23c-.22.37,48.77,3.33,110.28,30.13,0,1,27.75,9.56,68,38.95,38.39,30,78.82,78.33,117.64,128.38C447,229.06,467.18,257.77,480.49,288c13.74,30.19,21,61.94,23.82,89.71,2.52,27.69,2.53,51.52.64,69.69-1.56,17.74-3,29.35-3.73,33.91-.3-.08,2.05-18.75,3.8-50.05a256.36,256.36,0,0,0-.1-26c-.24-7.47-.71-18.21-1.65-27.84a298.67,298.67,0,0,0-12.89-61.85C477.11,274.08,453,237.48,433.1,212.69c-19.09-24.84-33.73-42.53-37.2-45.86,0,0,11.63,14.34,28.44,36.52,16.55,21.44,41,53.67,56.27,91.89,33.3,77.89,18.22,165.63,16.38,175.34-1.56,1.2,13.8-75.4-11.66-152.76-12.45-38-34.18-72-53.49-95.8-18.61-23.46-33.31-40.5-38.31-44.37,0,0,10.18,12.81,25.2,32.75C433.63,230,454.79,258,469.09,291.25c31.3,67.19,23,147,19.28,161.88,0,0,1.47-12.84,2.09-27.5a289.27,289.27,0,0,0-1.38-38c.24,8,0,16.17,0,24.19-.67-13-1.21-25.83-3-38.59-.59-7.44-1.56-14.84-2.79-22.23a262.58,262.58,0,0,1,3.07,30.72c.59,15.55-.33,32-.93,34,0,0,.57,6.77,1,.08-1.16-6.16,2.87-28-11-79.83-.19.1-2.77-15.9-14.94-43-11.46-27.64-37.27-62.36-72.08-104.1-17.41-20.87-37.15-43.61-60.72-65.69a255,255,0,0,0-85.22-55C176.23,41.06,94.61,25.61,10.27,35.93Z" fill="#231f20"/></svg>