<?xml version="1.0" encoding="utf-8"?>
<!-- Generator: Adobe Illustrator 21.0.2, SVG Export Plug-In . SVG Version: 6.00 Build 0)  -->
<svg version="1.1" id="Layer_1" xmlns="http://www.w3.org/2000/svg" xmlns:xlink="http://www.w3.org/1999/xlink" x="0px" y="0px"
	 viewBox="0 0 100 100" style="enable-background:new 0 0 100 100;" xml:space="preserve">
<path d="M81,5c-7.7,0-14,6.3-14,14c0,1.1,0.9,2,2,2s2-0.9,2-2c0-5.5,4.5-10,10-10s10,4.5,10,10v42.7C87.2,56.4,81,53,74,53
	c-10.9,0-19.9,8.4-20.9,19h-6.2c-1-10.6-10-19-20.9-19c-7,0-13.2,3.4-17,8.7V19c0-5.5,4.5-10,10-10s10,4.5,10,10c0,1.1,0.9,2,2,2
	s2-0.9,2-2c0-7.7-6.3-14-14-14S5,11.3,5,19v55c0,11.6,9.4,21,21,21c10.9,0,19.9-8.4,20.9-19h6.2c1,10.6,10,19,20.9,19
	c11.6,0,21-9.4,21-21V19C95,11.3,88.7,5,81,5z M26,91c-9.4,0-17-7.6-17-17s7.6-17,17-17s17,7.6,17,17S35.4,91,26,91z M74,91
	c-9.4,0-17-7.6-17-17s7.6-17,17-17s17,7.6,17,17S83.4,91,74,91z"/>
</svg>
