<?xml version="1.0" encoding="iso-8859-1"?>
<!-- Generator: Adobe Illustrator 21.1.0, SVG Export Plug-In . SVG Version: 6.00 Build 0)  -->
<svg version="1.1" id="Layer_1" xmlns="http://www.w3.org/2000/svg" xmlns:xlink="http://www.w3.org/1999/xlink" x="0px" y="0px"
	 viewBox="0 0 100.353 100.353" style="enable-background:new 0 0 100.353 100.353;" xml:space="preserve">
<path d="M90.464,49.829c-0.18-0.073-0.371-0.111-0.565-0.111H60.251c4.771-2.893,10.872-7.349,10.872-11.227
	c0-3.639-7.779-13.075-10.164-15.88c-0.168-0.199-0.386-0.35-0.631-0.439c-0.393-0.143-3.915-1.359-6.542-0.217
	c-0.666,0.292-1.25,0.609-1.759,0.943c-0.522-1.8-2.554-3.055-3.957-3.592c-0.075-0.028-0.151-0.051-0.229-0.067
	c-1.522-0.317-15.02-3.061-20.078-1.524c-5.531,1.672-12.65,8.095-17.314,15.62c-7.697,12.42-6.196,27.624-2.573,36.869
	c2.556,6.53,8.391,10.385,13.041,11.309c4.704,0.935,12.582,1.246,20.979,1.246c16.127,0,34.168-1.147,35.307-1.221
	c0.262-0.017,0.514-0.103,0.732-0.247c0.119-0.079,2.921-1.981,2.921-5.928c0-1.203-0.287-2.223-0.682-3.055h2.927
	c0.236,0,0.47-0.056,0.681-0.163c0.163-0.084,4-2.084,4-6.141c0-1.125-0.389-2.108-0.923-2.93h3.232
	c0.188,0,0.375-0.035,0.551-0.104c0.182-0.072,4.437-1.806,4.437-6.507S90.652,49.906,90.464,49.829z M49.623,29.69
	c0.408,0.777,0.981,1.567,1.576,2.387c0.968,1.333,2.293,3.16,2.009,4.117c-0.062,0.211-0.876,2.085-10.171,2.923
	c-3.434,0.31-10.301-1.907-10.909-3.924c-0.177-0.851,2.116-3.952,3.694-4.708c0.366-0.173,0.85-0.243,1.406-0.243
	c1.205,0,2.75,0.326,4.164,0.625c2.287,0.483,4.445,0.939,6.134,0.394C48.337,31,49.035,30.413,49.623,29.69z M89.761,60.074h-6.658
	c-0.002,0-0.004,0.001-0.006,0.001H53.903c-0.828,0-1.5,0.672-1.5,1.5s0.672,1.5,1.5,1.5h28.768
	c0.769,0.524,2.112,1.694,2.112,2.929c0,1.746-1.474,2.897-2.093,3.304h-5.583c-0.002,0-0.004,0.001-0.006,0.001H53.903
	c-0.828,0-1.5,0.672-1.5,1.5s0.672,1.5,1.5,1.5h22.652c0.471,0.459,1.302,1.488,1.302,3.054c0,1.735-0.875,2.786-1.322,3.211
	c-4.685,0.287-42.45,2.498-55.033-0.005c-2.871-0.569-8.383-3.204-10.831-9.459c0,0,0,0,0-0.001
	C7.033,59.829,6.342,45.657,13,34.914c4.244-6.847,10.818-12.873,15.634-14.329c0.798-0.242,1.945-0.343,3.292-0.343
	c4.766,0,12.029,1.257,15.175,1.907c1.04,0.431,2.157,1.284,2.039,1.715c-0.67,2.411-1.875,4.329-2.535,4.542
	c-0.928,0.301-2.875-0.111-4.593-0.474c-2.655-0.561-5.401-1.141-7.479-0.155c-1.957,0.937-6.186,5.251-5.278,8.275
	c1.317,4.371,10.521,6.373,14.055,6.053c7.909-0.713,11.97-2.322,12.775-5.06c0.706-2.373-0.975-4.688-2.457-6.73
	c-0.675-0.93-1.439-1.984-1.584-2.596c-0.145-0.604,0.526-1.957,2.943-3.015c1.124-0.488,3.02-0.103,3.961,0.173
	c4.466,5.297,9.176,11.909,9.176,13.614c0,2.842-8.555,8.475-14.337,11.387c-0.62,0.312-0.945,1.011-0.784,1.687
	c0.16,0.676,0.764,1.153,1.459,1.153h35.101c0.672,0.352,2.519,1.519,2.519,3.745C92.08,58.662,90.379,59.751,89.761,60.074z"/>
</svg>
