<?xml version="1.0" encoding="UTF-8" standalone="no"?><!DOCTYPE svg PUBLIC "-//W3C//DTD SVG 1.1//EN" "http://www.w3.org/Graphics/SVG/1.1/DTD/svg11.dtd"><svg width="100%" height="100%" viewBox="0 0 1078 859" version="1.1" xmlns="http://www.w3.org/2000/svg" xmlns:xlink="http://www.w3.org/1999/xlink" xml:space="preserve" xmlns:serif="http://www.serif.com/" style="fill-rule:evenodd;clip-rule:evenodd;stroke-linejoin:round;stroke-miterlimit:1.41421;"><path d="M114.181,469.58c39.2,65.34 33,153.7 16.87,223.23c-5.4,23.28 -11.64,47.85 -6.51,74c6.27,32 28.11,57.35 50.09,71.94c40.07,26.6 85.48,26.39 118.23,-0.53c28.3,-23.27 46.65,-64.19 75.56,-86.19c48.38,-36.74 115.56,-13.35 174.08,22.26c41.41,25.19 87,57 124.82,39.76c26.6,-12.16 42.87,-47.16 50.22,-85.36c3.55,-18.45 5.59,-38.61 14.05,-52.6c5,-8.32 12,-13.84 19.27,-18.34c66.19,-41.14 156.77,-5 220.52,-51.75c43.06,-31.54 67,-97.43 74.32,-168.11c7.32,-70.68 -0.19,-146.48 -9.38,-221.14c-6.54,-53.06 -15.22,-109.89 -42.34,-153.31c-28.74,-45.93 -73.46,-66.81 -112.1,-63c-38.64,3.81 -71.92,29 -100.52,59.93c-35.74,38.61 -67.81,88.08 -114.5,100.13c-31.79,8.2 -66.74,-2.13 -100.68,-8.14c-56.73,-10.05 -112.53,-8 -167.94,-5.13c-53,2.76 -106.39,6.35 -155.63,25.27c-34.84,13.39 -61.38,41.79 -93.83,60.07c-21.15,11.92 -45.15,13.19 -64.81,29.18c-24.21,19.7 -44.94,56.37 -34.63,103.12c9.77,44.42 44.03,70.03 64.84,104.71Z" style="fill:#ff6347;fill-opacity:0.1;fill-rule:nonzero;"/><path d="M446.851,467.46c0,32.75 21.07,60.32 49.73,68.51c11.17,3.193 22.997,3.314 34.23,0.35c29.29,-7.74 51,-35.63 51,-68.86c0,-35.2 -24.33,-64.41 -56.27,-70c-7.632,-1.342 -15.443,-1.302 -23.06,0.12c-31.63,5.87 -55.63,34.93 -55.63,69.88Z" style="fill:#ff6347;fill-rule:nonzero;"/><path d="M496.581,535.98c11.17,3.193 22.997,3.314 34.23,0.35c29.69,-67.45 8.15,-117.26 -5.29,-138.88c-7.632,-1.342 -15.443,-1.302 -23.06,0.12c-49.82,47.72 -26.77,105.34 -5.88,138.41Z" style="fill:#ff6347;fill-rule:nonzero;"/><path d="M496.581,535.98c11.17,3.193 22.997,3.314 34.23,0.35c29.69,-67.45 8.15,-117.26 -5.29,-138.88c-7.632,-1.342 -15.443,-1.302 -23.06,0.12c-49.82,47.72 -26.77,105.34 -5.88,138.41Z" style="fill:#fff;fill-opacity:0.1;fill-rule:nonzero;"/><path d="M905.321,442.96c0,0 -86,16 -148,-68c0,0 52,-51 88,-40c36,11 60,76 60,76l0,32Z" style="fill:#ff6347;fill-rule:nonzero;"/><path d="M905.321,442.96c0,0 -86,16 -148,-68c0,0 52,-51 88,-40c36,11 60,76 60,76l0,32Z" style="fill-opacity:0.1;fill-rule:nonzero;"/><path d="M866.311,374.96l-87.99,181l-21,-11l90.99,-170l18,0Z" style="fill:#504f60;fill-rule:nonzero;"/><path d="M757.321,374.96c15.939,0.172 31.798,2.298 47.22,6.33c21.28,5.615 41.515,14.631 59.92,26.7c26.61,17.33 40.86,35 40.86,35c63.45,-111.55 49.26,-312.7 48.07,-328.1l0,-0.92c-42.07,-0.01 -196.07,260.99 -196.07,260.99Z" style="fill:#ff6347;fill-rule:nonzero;"/><path d="M1.851,591.75l97.47,26.21c0,0 150,3 202,48c52,45 203,40 207,40c4,0 60,-49 162,2c102,51 224,19 224,19c0,0 127,53 163,35c36,-18 14,-42 14,-42c0,0 -74,-57 -17,-120c57,-63 -10,-63 -10,-63l-192.79,0c-15.734,0.146 -31.263,-3.588 -45.21,-10.87c-15.06,-8.05 -32.78,-5.48 -44.64,-2.09c-10.254,2.915 -21.032,3.496 -31.54,1.7c-96.77,-16.41 -158.52,-11.71 -184.16,-8.13c-10.68,1.477 -21.492,1.742 -32.23,0.79c-32.7,-2.85 -100.56,-8.9 -137.41,-13.28c-10.14,-1.2 -17.93,-2.27 -22,-3.12c-11.4,-2.38 -65.22,8.11 -119.66,22.14c-60.16,15.49 -121.09,35.31 -126.34,46.86c-7.24,15.92 -71.05,16.65 -105.76,15.84c-0.022,-0.001 -0.044,-0.001 -0.066,-0.001c-1.382,0 -2.52,1.138 -2.52,2.52c0,1.133 0.763,2.132 1.856,2.431Z" style="fill:#eed1d7;fill-rule:nonzero;"/><path d="M381.321,664.96l24,5c0,0 95,-51 108,-34m-108,-117c0,0 154,-31 218,6" style="fill:#ccb2bb;fill-rule:nonzero;"/><path d="M521.191,574.67c0,0 38.5,-15.74 36.82,-6.74c-1.68,9 -21.36,18 -21.36,18c0,0 38.78,-3.37 37.1,10.12c0,0 -44.4,-1.12 -42.72,9c1.68,10.12 0,23.61 -7.31,20.8c-7.31,-2.81 -11.8,-35.41 -31.48,-19.67c-19.68,15.74 -16.86,-16.3 7.31,-19.11c0,0 -12.93,-9.56 -11.8,-14.05c1.13,-4.49 33.44,1.65 33.44,1.65Z" style="fill-opacity:0.1;fill-rule:nonzero;"/><path d="M521.751,572.98c0,0 38.5,-15.74 36.82,-6.74c-1.68,9 -21.36,18 -21.36,18c0,0 38.78,-3.37 37.1,10.12c0,0 -44.4,-1.12 -42.72,9c1.68,10.12 0,23.61 -7.31,20.8c-7.31,-2.81 -11.8,-35.41 -31.48,-19.67c-19.68,15.74 -16.86,-16.3 7.31,-19.11c0,0 -12.93,-9.56 -11.8,-14.05c1.13,-4.49 33.44,1.65 33.44,1.65Z" style="fill:#f89898;fill-rule:nonzero;"/><path d="M222.321,603.96c0,0 55,-17 60,-14m367,29c0,0 -74,-21 -102,-5" style="fill:#ccb2bb;fill-rule:nonzero;"/><path d="M526.821,533.46c0,0 -20,-59 -60,-47c-40,12 -70,43 -70,43l130,10l0,-6Z" style="fill:#eed1d7;fill-rule:nonzero;"/><path d="M961.821,599.46c0,0 -31,13 -83,8c-52,-5 -93,26 -93,26" style="fill:#ccb2bb;fill-rule:nonzero;"/><path d="M804.541,381.29c21.28,5.615 41.515,14.631 59.92,26.7l88.93,-293.1l0.43,-1.42l-0.47,0.84l-148.81,266.98Z" style="fill:#fff;fill-opacity:0.1;fill-rule:nonzero;"/><path d="M384.981,474.49c0,0 -62.88,-29.2 -111.86,17.54c0,0 30.71,34.36 43.86,28.51c13.15,-5.85 52.64,-16.08 57,-27.05c2.784,-6.805 6.485,-13.197 11,-19Z" style="fill:#ff6347;fill-rule:nonzero;"/><path d="M384.981,474.49c0,0 -62.88,-29.2 -111.86,17.54c0,0 30.71,34.36 43.86,28.51c13.15,-5.85 52.64,-16.08 57,-27.05c2.784,-6.805 6.485,-13.197 11,-19Z" style="fill-opacity:0.05;fill-rule:nonzero;"/><path d="M279.981,526.5l3.34,12.71l1.37,5.21l13.29,50.7l85.53,0l0,-82.53c-7.41,-0.88 -13.11,-1.66 -16.08,-2.28c-8.34,-1.74 -47.68,5.98 -87.45,16.19Z" style="fill-opacity:0.1;fill-rule:nonzero;"/><path d="M273.121,492.03l1,3.92l10.63,40.34l1.37,5.21l13.32,50.69l85.54,0l0,-117.7c-1.227,0.807 -2.45,1.58 -3.67,2.32c-52.77,32.34 -102.68,17.06 -107.76,15.37l-0.43,-0.15Z" style="fill:#ff6347;fill-rule:nonzero;"/><path d="M273.641,494.01l-0.52,-2l0.42,0.15c2.39,0.79 14.72,4.6 32.6,5c-10.923,0.308 -21.841,-0.75 -32.5,-3.15Zm107.66,-17.2c1.22,-0.74 2.443,-1.513 3.67,-2.32l0,117.7l-6.58,0l0,-113.64c0.97,-0.57 1.94,-1.14 2.91,-1.74Z" style="fill:#fff;fill-opacity:0.1;fill-rule:nonzero;"/><path d="M258.211,517.45c1.37,9.63 10.75,17.71 27.91,24.05c0.773,0.293 1.563,0.58 2.37,0.86c5.369,1.889 11.018,2.859 16.71,2.87c18.11,0 36.52,-9.89 54.09,-29.23c9.963,-11.195 18.585,-23.515 25.69,-36.71l0,-4.8c-1.227,0.807 -2.45,1.58 -3.67,2.32c-7.009,13.037 -15.509,25.216 -25.33,36.29c-22,24.22 -44.24,32.67 -66,25.11c-1.81,-0.63 -3.53,-1.27 -5.17,-1.93c-13.68,-5.51 -21.14,-12 -22.2,-19.45c-1.33,-9.35 8,-18 11.59,-20.89c0.8,-0.65 1.3,-1 1.33,-1l-1.94,-2.74l-0.59,-0.84c-0.74,0.46 -16.78,11.98 -14.79,26.09Z" style="fill:#504f60;fill-rule:nonzero;"/><circle cx="247.821" cy="261.46" r="66" style="fill:#ffdf9c;"/><path d="M835.911,359.73c-0.248,-0.412 -0.363,-0.89 -0.33,-1.37c0.147,0.447 0.257,0.905 0.33,1.37Z" style="fill:url(#_Linear1);fill-rule:nonzero;"/><path d="M835.911,359.04c-0.248,-0.412 -0.363,-0.89 -0.33,-1.37c0.147,0.447 0.257,0.905 0.33,1.37Z" style="fill:url(#_Linear2);fill-rule:nonzero;"/><path d="M533.811,677.05c1.56,0.78 14.37,-1.09 25.19,-2.86c-5.83,-1.33 -10.1,-3.1 -12.11,-5.41c-11.63,-13.37 39.6,-5.63 55.8,-2.9l13,-2.61l14.6,-3.37c10.07,-14.15 25.33,-42.85 32.72,-57.08c-2.45,-0.55 -4,-0.82 -4,-0.82c0.12,-0.45 0.24,-0.88 0.36,-1.31l-0.36,-0.06c13.77,-52.32 37.17,-44.75 37.17,-44.75c2.8,0 6.91,1.21 11.77,3.19c1.602,-5.556 3.635,-10.979 6.08,-16.22l0.57,-1.23l-2.59,0.49c0,0 0.13,-0.36 0.4,-1l-0.24,0l-0.57,0.11l-0.35,0l-0.6,0.12c0,0 18.9,-51.29 59.08,-82.15c10.632,-8.272 23.358,-13.428 36.75,-14.89c0.71,-0.07 1.4,-0.13 2.09,-0.18l0.62,0l1.54,-0.07l1.08,0c9.12,-0.13 15.77,2.12 23.45,6c1.4,0.69 2.83,1.43 4.31,2.24c1.15,-0.14 2.292,-0.343 3.42,-0.61c0.613,-0.147 1.213,-0.317 1.8,-0.51c-18.798,-8.533 -27.579,-30.725 -19.71,-49.81c-2.725,-4.814 -6.901,-8.647 -11.93,-10.95c-0.632,-0.215 -1.197,-0.591 -1.64,-1.09c-0.357,-0.625 -0.517,-1.343 -0.46,-2.06l0,-0.66c-0.077,-6.662 4.87,-12.402 11.47,-13.31c1.904,-0.276 3.761,-0.81 5.52,-1.59c4.27,-1.94 7.76,-6.27 8,-10.76c-0.009,-0.402 -0.046,-0.803 -0.11,-1.2l0.1,0.15c0,-0.28 -0.06,-0.56 -0.1,-0.84c1.246,1.725 3.662,2.169 5.44,1c1.423,-1.233 2.214,-3.048 2.15,-4.93c-0.019,-0.516 -0.072,-1.031 -0.16,-1.54c-0.316,-1.416 -0.491,-2.86 -0.52,-4.31c-0.07,-1.53 0.22,-2.93 1.46,-3.74c2.63,3.24 6.89,4.78 11,5.11c4.11,0.33 8.32,-0.4 12.45,-0.95c10.23,-1.4 21.72,-1.25 29.41,5.6c5,4.45 7.53,11 9.87,17.26c3.31,8.86 6.62,18.48 6.52,27.72c0.091,4.319 -0.73,8.61 -2.41,12.59c-3.22,7.42 -9.76,13.28 -11.76,21.12c-0.299,1.842 -0.826,3.639 -1.57,5.35c-1.81,3.31 -6,4.64 -9.81,4.13c-1.43,1.421 -2.968,2.728 -4.6,3.91c0,0.43 0.07,0.87 0.11,1.3c0.26,2.71 0.62,5.39 1.12,8c0.31,-0.44 0.73,-0.2 2,-0.2l0.54,0l0.5,0.06l0.54,0.09l0.12,0l0.63,0.13l0.69,0.17l0.09,0l0.77,0.21l0.84,0.24c2.4,0.72 5.32,1.77 8.4,3c1.254,-7.635 4.826,-14.702 10.23,-20.24c-1.072,-1.475 -1.943,-3.086 -2.59,-4.79c-1,-2.8 0,-4.73 1.84,-6.39c1.68,-1.564 3.497,-2.973 5.43,-4.21c8.429,-6.248 18.009,-10.772 28.19,-13.31c3.269,-0.938 6.677,-1.293 10.07,-1.05c3.192,0.47 6.287,1.46 9.16,2.93c4.627,2.16 9.058,4.719 13.24,7.65c2.81,2 5.57,4.14 8.81,5.26c4.87,1.69 10.5,0.9 15,3.44c6.28,3.55 7.69,12.07 6.76,19.23c-0.93,7.16 -3.47,14.29 -2.34,21.42c1.69,10.67 10.94,18.25 19.44,24.91c2.68,2.1 5.55,4.56 6,7.94c0.26,2.11 -0.52,4.19 -1.17,6.22c-3.586,11.099 -3.4,23.078 0.53,34.06c4.013,10.973 11.93,20.094 22.23,25.61c3.91,2 8.65,4.13 9.56,8.44c0.62,2.9 -0.75,5.46 -3,7.51c-2.179,2.171 -4.817,3.825 -7.72,4.84c-4.283,1.582 -8.711,2.737 -13.22,3.45c-4,0.63 -8.21,0.87 -11.83,-0.87c-4.21,-2 -6.78,-6.32 -9,-10.43c-5.69,-10.5 -12.23,-17.49 -17.63,-25.94c-0.71,3.09 -1.29,5.24 -1.32,5.36c4.48,4 6.58,10.68 4.13,21.36c-9.64,42 -22,52.32 -22,52.32c-0.344,-2.268 -1.218,-4.423 -2.55,-6.29l-0.55,0.66c-5.88,7.14 -12.63,14.57 -18.24,18.7c-6.433,4.741 -12.248,10.267 -17.31,16.45c-0.495,0.613 -0.765,1.378 -0.765,2.166c0,1.319 0.757,2.528 1.945,3.104c8.83,4.3 28.13,15.34 5.11,20.27c-23.02,4.93 -41.8,-8.12 -48.39,-13.57c-1.449,-1.195 -1.673,-3.363 -0.5,-4.83l21,-26.2l2.51,-3.26c-1.39,1 -2.8,2 -4.26,3.08l3.74,-6l-11.84,1.23c-0.34,0.72 -0.69,1.43 -1,2.11c-2.36,4.85 -4.86,8.63 -7.46,10.74c0.238,4.869 -0.928,9.705 -3.36,13.93c-9.45,17.13 -61.48,17 -76.06,16.65c-1.358,0.216 -2.727,0.35 -4.1,0.4c-2.273,0.075 -4.548,-0.075 -6.79,-0.45l-0.48,-0.08c-2.838,-0.414 -5.531,-1.52 -7.84,-3.22l-20.71,-4.14l-0.47,0.11c-11.69,2.41 -33.93,6.26 -46.7,3.81c-12.24,-2.35 -19.33,1.73 -22.59,4.55c0.352,1.257 0.77,2.496 1.25,3.71l-0.18,0c0.81,1.8 3.83,10.5 -8.43,20.31c-8,6.4 -62.54,8.07 -81.23,4.13c-13.46,-2.84 5.67,-11 8.26,-11c5.87,0 24.09,-12.36 26,-13.65l2,-2.68c-12.67,1.69 -35,4.37 -39.37,2.9c-6.2,-2.07 -33.73,1.38 -33.73,1.38c0,0 -37.17,8.26 -55.07,2.75c-17.9,-5.51 0.66,-17.18 3.42,-15.81Z" style="fill:url(#_Linear3);fill-rule:nonzero;"/><path d="M776.811,531.81c2.17,0.93 7.33,5.79 14,12.77c2.13,-14 3.5,-26.64 2.61,-31.89c-0.077,-0.784 -0.349,-1.537 -0.79,-2.19c-4,-0.27 -12.18,9.77 -18.71,18.86c1.84,1.44 2.89,2.45 2.89,2.45Z" style="fill:url(#_Linear4);fill-rule:nonzero;"/><path d="M669.981,593.11c0,0 -35,69.42 -43.81,72.12c-8.81,2.7 -14.83,-1.35 -14.83,-1.35c0,0 -72.79,-13.48 -59.31,2c13.48,15.48 131.43,6.07 131.43,6.07l29.62,-66.66l-43.1,-12.18Z" style="fill:#ef91a3;fill-rule:nonzero;"/><path d="M770.371,594.46c0,0 -56.62,-37.74 -72.12,-37.74c0,0 -22.92,-7.41 -36.4,43.81c0,0 46.51,8.09 45.83,30.33l8.76,-18.87l37.74,41.79l45.83,-31l-29.64,-28.32Z" style="fill-opacity:0.1;fill-rule:nonzero;"/><path d="M770.371,593.11c0,0 -56.62,-37.74 -72.12,-37.74c0,0 -22.92,-7.41 -36.4,43.81c0,0 46.51,8.09 45.83,30.33l8.76,-18.87l37.74,41.79l45.83,-31l-29.64,-28.32Z" style="fill:#5d526e;fill-rule:nonzero;"/><path d="M708.371,574.24c3.37,16.18 20.89,18.87 20.89,18.87l24.94,-15.5c0,0 3.52,-23.22 6.49,-37.37c1.14,-5.44 2.2,-9.54 2.95,-10.48c2.7,-3.37 -39.77,-2.7 -39.77,-2.7c-2.981,5.037 -5.695,10.228 -8.13,15.55c-4.62,10.11 -9.17,22.99 -7.37,31.63Zm107.84,-121.95l14.15,67.4l34.37,-8.76c0,0 31.68,-24.99 22.25,-40.49c-3.09,-5.07 -4.66,-12.44 -5.38,-20.07c-1.48,-15.71 0.66,-32.51 0.66,-32.51c0,0 -37.74,-10.11 -30.33,17.52c3,11.35 -2.43,16.22 -9.95,18c-10.79,2.61 -25.77,-1.09 -25.77,-1.09Z" style="fill:#ef91a3;fill-rule:nonzero;"/><path d="M841.981,453.41c5.361,2.788 11.317,4.239 17.36,4.23c8.32,0 16.34,-5.21 22.58,-9.77c-0.864,-9.987 -0.75,-20.035 0.34,-30c1.089,-9.965 -37.74,-10.11 -30.33,17.52c3.05,11.35 -2.43,16.22 -9.95,18.02Z" style="fill-opacity:0.1;fill-rule:nonzero;"/><circle cx="859.341" cy="418.54" r="37.74" style="fill:#ef91a3;"/><path d="M862.171,497.29l-10.24,14.28l-5.82,-21.11c-2.249,-8.446 -3.435,-17.14 -3.53,-25.88c-0.053,-3.706 -1.263,-7.305 -3.46,-10.29c-10.5,-5.73 -18.3,-8.75 -31.54,-7.39c-13.119,1.429 -25.585,6.477 -36,14.58c-39.34,30.22 -57.84,80.43 -57.84,80.43c0,0 53.94,-10.81 51.24,1.32c0,0 23.59,-37.74 29,-31.68c5.41,6.06 -11.46,86.27 -11.46,86.27l110.54,8.09l29,-76.84l-1.35,-57.29c0,0 -28.65,-13.14 -34.71,-13.14c-2.12,0 -1.8,-0.74 -2.7,2.7c-3.49,13.24 -13.16,24.82 -21.13,35.95Z" style="fill-opacity:0.1;fill-rule:nonzero;"/><path d="M715.741,542.61c9.38,-1.69 35.93,-6 44.95,-2.37c1.14,-5.44 2.2,-9.54 2.95,-10.48c2.7,-3.37 -39.77,-2.7 -39.77,-2.7c-2.981,5.037 -5.695,10.228 -8.13,15.55Z" style="fill-opacity:0.1;fill-rule:nonzero;"/><path d="M860.821,496.6l-10.24,14.28l-5.82,-21.11c-2.249,-8.446 -3.435,-17.14 -3.53,-25.88c-0.05,-3.705 -1.256,-7.304 -3.45,-10.29c-10.5,-5.73 -18.3,-8.75 -31.54,-7.39c-13.119,1.429 -25.585,6.477 -36,14.58c-39.34,30.22 -57.84,80.43 -57.84,80.43c0,0 53.92,-10.78 51.22,1.35c0,0 23.59,-37.74 29,-31.68c5.41,6.06 -11.46,86.27 -11.46,86.27l110.54,8.13l29,-76.84l-1.35,-57.29c0,0 -28.65,-13.14 -34.71,-13.14c-2.12,0 -1.8,-0.74 -2.7,2.7c-3.48,13.19 -13.15,24.77 -21.12,35.88Z" style="fill:#dfecfb;fill-rule:nonzero;"/><path d="M885.551,445.21c3.79,0.68 8.2,-0.6 10,-4c0.73,-1.676 1.247,-3.436 1.54,-5.24c2,-7.68 8.36,-13.41 11.51,-20.68c5.31,-12.25 0.65,-26.29 -4,-38.8c-2.3,-6.14 -4.77,-12.54 -9.67,-16.9c-7.53,-6.7 -18.77,-6.86 -28.76,-5.54c-4,0.53 -8.12,1.25 -12.19,0.93c-4.07,-0.32 -8.24,-1.83 -10.82,-5c-2.17,1.41 -1.37,4.67 -0.92,7.21c0.45,2.54 0.08,5.46 -2,7c-2.08,1.54 -5.82,0.27 -5.65,-2.27c1.82,5.4 -2.2,11.37 -7.39,13.72c-1.724,0.765 -3.544,1.29 -5.41,1.56c-6.422,0.963 -11.187,6.597 -11.07,13.09l0,0.06c-0.052,0.696 0.105,1.393 0.45,2c0.433,0.485 0.984,0.851 1.6,1.06c5.233,2.397 9.513,6.483 12.15,11.6c1.4,2.73 2.45,5.89 5,7.56c3.17,2 7.31,1 11.07,1.32c6.35,0.605 11.729,5.019 13.56,11.13c0.87,3.12 0.76,6.52 2.71,9.3c0.84,1.266 2.185,2.112 3.69,2.32c2.92,0.32 4.27,-2.31 6.36,-3.66c4.93,-3.18 8.07,1 9.63,5c1.74,4.31 2.93,6.22 8.61,7.23Z" style="fill-opacity:0.1;fill-rule:nonzero;"/><path d="M885.551,444.53c3.79,0.68 8.2,-0.6 10,-4c0.73,-1.676 1.247,-3.436 1.54,-5.24c2,-7.68 8.36,-13.41 11.51,-20.68c5.31,-12.25 0.65,-26.29 -4,-38.8c-2.3,-6.14 -4.77,-12.54 -9.67,-16.9c-7.53,-6.7 -18.77,-6.86 -28.76,-5.54c-4,0.53 -8.12,1.25 -12.19,0.93c-4.07,-0.32 -8.24,-1.83 -10.82,-5c-2.17,1.41 -1.37,4.67 -0.92,7.21c0.45,2.54 0.08,5.46 -2,7c-2.08,1.54 -5.82,0.27 -5.65,-2.27c1.82,5.4 -2.2,11.37 -7.39,13.72c-1.724,0.765 -3.544,1.29 -5.41,1.56c-6.442,0.925 -11.247,6.553 -11.15,13.06l0,0.06c-0.052,0.696 0.105,1.393 0.45,2c0.433,0.485 0.984,0.851 1.6,1.06c5.233,2.397 9.513,6.483 12.15,11.6c1.4,2.73 2.45,5.89 5,7.56c3.17,2 7.31,1 11.07,1.32c6.35,0.605 11.729,5.019 13.56,11.13c0.87,3.12 0.76,6.52 2.71,9.3c0.84,1.266 2.185,2.112 3.69,2.32c2.92,0.32 4.27,-2.31 6.36,-3.66c4.93,-3.18 8.07,1 9.63,5c1.82,4.38 3.01,6.25 8.69,7.26Z" style="fill:#572142;fill-rule:nonzero;"/><path d="M778.341,460.1c-36.39,27.95 -54.95,73 -57.53,79.61c-5,0.82 -8.4,1.5 -8.4,1.5c0,0 18.5,-50.22 57.84,-80.43c10.415,-8.103 22.881,-13.151 36,-14.58c1.731,-0.177 3.469,-0.281 5.21,-0.31c-12.071,1.833 -23.474,6.725 -33.12,14.21Zm111.64,-0.11c-3.46,13.24 -13.13,24.82 -21.11,35.94l-10.24,14.28l-2.11,-7.66l4.26,-5.94c8,-11.12 17.65,-22.7 21.11,-35.94c0.9,-3.43 0.57,-2.7 2.7,-2.7c1.909,0.179 3.788,0.602 5.59,1.26l-0.2,0.76Zm-122.76,77.04c-2.19,3.29 -3.59,5.53 -3.59,5.53c1.18,-5.29 -8.42,-6.22 -19.62,-5.59c8.79,-0.93 17.91,-1.34 23.21,0.06Zm26.19,-23.98c3.19,-3 5.87,-4.45 7.3,-2.85c5.39,6.07 -11.46,86.27 -11.46,86.27l102.91,7.53l-0.46,1.23l-110.54,-8.09c0,0 14.67,-69.85 12.25,-84.09Z" style="fill-opacity:0.05;fill-rule:nonzero;"/><path d="M895.541,673.51c6.45,5.34 24.76,18.13 47.38,13.28c22.62,-4.85 3.63,-15.64 -5,-19.85c-1.16,-0.565 -1.899,-1.748 -1.899,-3.038c0,-0.772 0.264,-1.521 0.749,-2.122c4.954,-6.051 10.645,-11.46 16.94,-16.1c5.49,-4 12.11,-11.32 17.86,-18.31c3,-3.66 5.8,-7.23 8.07,-10.23c0.444,-0.587 0.685,-1.304 0.685,-2.041c0,-1.854 -1.525,-3.38 -3.38,-3.38c-0.302,0 -0.604,0.041 -0.895,0.121l-44.19,12c-0.691,0.188 -1.304,0.591 -1.75,1.15l-35.04,43.8c-1.146,1.43 -0.936,3.544 0.47,4.72Z" style="fill:#ef91a3;fill-rule:nonzero;"/><path d="M915.581,643.13c36.87,-26.89 50.79,-22.09 56,-15.76c3,-3.66 5.8,-7.23 8.07,-10.23c0.444,-0.587 0.685,-1.304 0.685,-2.041c0,-1.854 -1.525,-3.38 -3.38,-3.38c-0.302,0 -0.604,0.041 -0.895,0.121l-44.19,12c-0.691,0.188 -1.304,0.591 -1.75,1.15l-14.54,18.14Z" style="fill-opacity:0.1;fill-rule:nonzero;"/><path d="M946.291,560.08c0,0 59.31,-19.55 49.88,21.57c-9.43,41.12 -21.57,51.22 -21.57,51.22c0,0 -3.37,-32.35 -60.66,10.11l20.22,-32.35l-23.59,-29.66l35.72,-20.89Z" style="fill:#5d526e;fill-rule:nonzero;"/><path d="M960.441,523.01c0,0 5.39,28.31 -14.15,62.68c-15.49,27.25 2.9,39.67 11.18,43.65c2.22,1.069 4.888,0.623 6.64,-1.11c5.46,-5.4 15.93,-19.1 9.81,-40.52l-4,-10.78l22.24,-16.18c0,0 6,-22.32 3.35,-27.34c-2.65,-5.02 -24.24,-18.5 -24.24,-18.5l-10.83,8.1Z" style="fill-opacity:0.1;fill-rule:nonzero;"/><path d="M960.441,521.67c0,0 5.39,28.31 -14.15,62.68c-15.49,27.25 2.9,39.67 11.18,43.65c2.22,1.069 4.888,0.623 6.64,-1.11c5.46,-5.4 15.93,-19.1 9.81,-40.52l-4,-10.78l22.24,-16.18c0,0 6,-22.32 3.35,-27.34c-2.65,-5.02 -24.24,-18.5 -24.24,-18.5l-10.83,8.1Z" style="fill:#ef91a3;fill-rule:nonzero;"/><path d="M911.241,467.75c0,0 48.53,27.63 68.74,45.83c20.21,18.2 16.18,24.26 16.18,24.26c0,0 -19.55,-36.4 -36.4,-4.72c0,0 -47.18,-34.37 -60,-19.55c-12.82,14.82 11.48,-45.82 11.48,-45.82Z" style="fill:#dfecfb;fill-rule:nonzero;"/><path d="M929.441,626.81l-40.44,-8.09l4.71,20.89l29.31,-3.05l6.42,-9.75Z" style="fill:#5d526e;fill-rule:nonzero;"/><path d="M859.341,537.84l1.35,14.83l48.53,-8.09l14.83,-9.44l22.24,-8.09c-2.624,-7.228 -3.035,-15.077 -1.18,-22.54c0.842,-3.219 2.149,-6.298 3.88,-9.14c9.44,-15.5 -39.77,-8.76 -39.77,-8.76c0.533,3.494 0.78,7.026 0.74,10.56c-0.1,11.26 -3.29,27.14 -21,24.49l-14.83,8.76l-14.79,7.42Z" style="fill:#ffc1cd;fill-rule:nonzero;"/><path d="M907.201,516.95c0,0 -24.94,-10.78 -37.07,11.46c-12.13,22.24 -17.53,20.88 -17.53,20.88l24.26,-15.5l30.34,-16.84Z" style="fill:#ffc1cd;fill-rule:nonzero;"/><path d="M886.301,629.51c0,0 18.87,15.5 8.09,35c-10.78,19.5 -78.18,16.18 -78.18,16.18c0,0 42.79,-16.08 32.18,-70c-0.01,-0.01 30.5,8.71 37.91,18.82Zm-89.64,22.91l6.74,25.61l-23.59,-4.74c0,0 10.11,-21.57 8.76,-27.63c-1.35,-6.06 8.09,6.76 8.09,6.76Z" style="fill:#5f5470;fill-rule:nonzero;"/><path d="M777.791,621.42c0,0 -61.33,6.07 -78.18,15.5l-12.81,4c0,0 -4.72,-1.35 -14.83,7.41l-52.57,12.13l-40.42,8.14c0,0 -37.07,6.74 -39.77,5.39c-2.7,-1.35 -20.89,10.11 -3.37,15.5c17.52,5.39 53.92,-2.7 53.92,-2.7c0,0 27,-3.37 33,-1.35c6,2.02 47.18,-4 47.18,-4l40.44,2.7c0,0 6.74,-10.11 24.26,-6.74c12.51,2.4 34.28,-1.37 45.72,-3.73c4.523,-0.928 8.052,-4.521 8.9,-9.06l4,-21.59l-15.47,-21.6Z" style="fill:#ffc1cd;fill-rule:nonzero;"/><path d="M777.791,621.42c0,0 -61.33,6.07 -78.18,15.5l-12.81,4c0,0 -4.72,-1.35 -14.83,7.41l-52.57,12.13l-40.42,8.14c0,0 -37.07,6.74 -39.77,5.39c-2.7,-1.35 -20.89,10.11 -3.37,15.5c17.52,5.39 53.92,-2.7 53.92,-2.7c0,0 27,-3.37 33,-1.35c6,2.02 47.18,-4 47.18,-4l40.44,2.7c0,0 6.74,-10.11 24.26,-6.74c12.51,2.4 34.28,-1.37 45.72,-3.73c4.523,-0.928 8.052,-4.521 8.9,-9.06l4,-21.59l-15.47,-21.6Z" style="fill-opacity:0.05;fill-rule:nonzero;"/><path d="M909.981,497.18c9.666,8.316 22.963,11.092 35.15,7.34c0.842,-3.219 2.149,-6.298 3.88,-9.14c9.44,-15.5 -39.77,-8.76 -39.77,-8.76c0.533,3.494 0.78,7.026 0.74,10.56Z" style="fill-opacity:0.1;fill-rule:nonzero;"/><circle cx="934.151" cy="467.74" r="37.07" style="fill:#ffc1cd;"/><path d="M949.661,522.29c0,0 -28.31,15.5 -29.66,25.61c-1.35,10.11 4,22.24 4,22.24c0,0 -12.81,76.84 -29,82.23l-43.14,-41.79l-36.4,-16.18c0,0 21.57,-1.35 23.59,-21.57c2.02,-20.22 -2.7,-27 21.57,-36.4c24.27,-9.4 37.41,-20.56 37.41,-20.56l6.27,1.58l-32.21,17c0,0 -18.2,10.78 29,2.7l44.53,-16.16l4.04,1.3Z" style="fill-opacity:0.1;fill-rule:nonzero;"/><path d="M950.331,520.99c0,0 -28.35,15.5 -29.65,25.61c-1.3,10.11 4,22.24 4,22.24c0,0 -12.81,76.84 -29,82.23l-43.08,-41.78l-36.4,-16.18c0,0 21.57,-1.35 23.59,-21.57c2.02,-20.22 -2.7,-27 21.57,-36.4c24.27,-9.4 37.41,-20.56 37.41,-20.56l6.27,1.58l-32.21,17c0,0 -18.2,10.78 29,2.7l44.48,-16.18l4.02,1.31Z" style="fill:#ff808c;fill-rule:nonzero;"/><path d="M940.221,526.38c0,0 27.64,-10.09 20.9,22.25c-6.74,32.34 -41.79,88.29 -41.79,88.29l-82.23,-28.31c0,0 -25.61,-19.55 -18.87,-21.57c6.74,-2.02 42.46,10.78 42.46,10.78l48.53,7.47l11.46,-32.4c0,0 -10.78,-7.41 -7.41,-16.85l0.1,-0.28c4.577,-12.556 13.812,-22.883 25.78,-28.83l1.07,-0.55Z" style="fill-opacity:0.1;fill-rule:nonzero;"/><path d="M941.571,525.04c0,0 27.64,-10.11 20.9,22.25c-6.74,32.36 -41.79,88.29 -41.79,88.29l-82.23,-28.29c0,0 -25.61,-19.55 -18.87,-21.57c6.74,-2.02 42.46,10.78 42.46,10.78l48.53,7.41l11.41,-32.37c0,0 -10.78,-7.41 -7.41,-16.85l0.1,-0.28c4.577,-12.556 13.812,-22.883 25.78,-28.83l1.12,-0.54Z" style="fill:#ffc1cd;fill-rule:nonzero;"/><path d="M938.981,414.58c3.202,-0.908 6.54,-1.246 9.86,-1c3.136,0.454 6.177,1.42 9,2.86c4.543,2.113 8.893,4.619 13,7.49c2.75,1.93 5.45,4.05 8.63,5.15c4.76,1.65 10.28,0.88 14.67,3.37c6.15,3.48 7.53,11.82 6.62,18.82c-0.91,7 -3.39,14 -2.29,21c1.65,10.45 10.71,17.87 19,24.39c2.62,2.05 5.43,4.47 5.84,7.77c0.25,2.07 -0.51,4.11 -1.14,6.09c-3.512,10.867 -3.329,22.597 0.52,33.35c3.932,10.743 11.684,19.67 21.77,25.07c3.83,2 8.47,4 9.36,8.26c1.14,5.36 -4.63,9.51 -9.77,11.41c-4.192,1.549 -8.526,2.681 -12.94,3.38c-3.88,0.61 -8,0.85 -11.58,-0.85c-4.12,-2 -6.64,-6.19 -8.82,-10.21c-8.49,-15.66 -18.9,-23.34 -24.39,-40.28c-1.18,-3.65 -3.07,-8 -6.9,-8.37c-2.39,-0.23 -4.55,1.28 -6.59,2.56c-9.81,6.18 -20.11,-0.75 -29.24,-7.89c-2.11,-1.65 -3.92,-3.73 -6.27,-5c-5,-2.74 -12.27,-2 -15.27,-6.8c-0.695,-1.277 -1.177,-2.658 -1.43,-4.09c-1.23,-5.27 -2.45,-10.8 -1,-16c1.31,-4.83 4.73,-8.79 6.75,-13.38c2.02,-4.59 2.13,-10.85 -2,-13.69c-1.24,-0.85 -2.72,-1.29 -3.94,-2.18c-3.54,-2.57 -3.62,-7.7 -3.6,-12.07c0.089,-1.082 -0.096,-2.169 -0.54,-3.16c-0.647,-0.941 -1.498,-1.724 -2.49,-2.29c-3.953,-2.724 -7.02,-6.55 -8.82,-11c-1.79,-4.82 2.79,-7 6.44,-9.7c8.242,-6.105 17.608,-10.526 27.56,-13.01Z" style="fill-opacity:0.1;fill-rule:nonzero;"/><path d="M939.671,413.91c3.202,-0.908 6.54,-1.246 9.86,-1c3.136,0.454 6.177,1.42 9,2.86c4.543,2.113 8.893,4.619 13,7.49c2.75,1.93 5.45,4.05 8.63,5.15c4.76,1.65 10.28,0.88 14.67,3.37c6.15,3.48 7.53,11.82 6.62,18.82c-0.91,7 -3.39,14 -2.29,21c1.65,10.45 10.71,17.87 19,24.39c2.62,2.05 5.43,4.47 5.84,7.77c0.25,2.07 -0.51,4.11 -1.14,6.09c-3.512,10.867 -3.329,22.597 0.52,33.35c3.932,10.743 11.684,19.67 21.77,25.07c3.83,2 8.47,4 9.36,8.26c1.14,5.36 -4.63,9.51 -9.77,11.41c-4.206,1.541 -8.554,2.664 -12.98,3.35c-3.88,0.61 -8,0.85 -11.58,-0.85c-4.12,-2 -6.64,-6.19 -8.82,-10.21c-8.49,-15.66 -18.9,-23.34 -24.39,-40.28c-1.18,-3.65 -3.07,-8 -6.9,-8.37c-2.39,-0.23 -4.55,1.28 -6.59,2.56c-9.81,6.18 -20.11,-0.75 -29.24,-7.89c-2.11,-1.65 -3.92,-3.73 -6.27,-5c-5,-2.74 -12.27,-2 -15.27,-6.8c-0.698,-1.3 -1.178,-2.705 -1.42,-4.16c-1.23,-5.27 -2.45,-10.8 -1,-16c1.31,-4.83 4.73,-8.79 6.75,-13.38c2.02,-4.59 2.13,-10.85 -2,-13.69c-1.24,-0.85 -2.72,-1.29 -3.94,-2.18c-3.54,-2.57 -3.62,-7.7 -3.6,-12.07c0.089,-1.082 -0.096,-2.169 -0.54,-3.16c-0.647,-0.941 -1.498,-1.724 -2.49,-2.29c-3.931,-2.694 -6.993,-6.475 -8.81,-10.88c-1.79,-4.82 2.79,-7 6.44,-9.7c8.246,-6.115 17.619,-10.543 27.58,-13.03Z" style="fill:#b46d86;fill-rule:nonzero;"/><path d="M625.801,709.38c18.3,3.86 71.69,2.22 79.53,-4c12,-9.6 9,-18.12 8.25,-19.88l0.18,0c0,0 -6.74,-16.18 0,-28.31c0,0 0.67,-14.83 14.83,-26.29c14.16,-11.46 29.66,-43.81 29.66,-43.81l8.09,16.85c0,0 12.16,37 24.77,53.42c2.516,3.259 4.23,7.065 5,11.11c0.84,4.46 3.72,10.07 12.68,11.63l0.47,0.08c12.762,2.123 25.657,-3.348 33,-14c6,-8.69 12.87,-20.74 14.41,-32.48c1.019,-7.984 -1.384,-16.039 -6.61,-22.16l-0.07,-0.09c-14.52,-17.15 -64.85,-76.16 -72.91,-79.61c0,0 -36.4,-35 -50.55,12.13c-14.15,47.13 -18.84,61.32 -18.84,61.32c0,0 -16.92,30.23 -21.57,40.44c-4.8,10.55 -24.76,36.88 -26.79,39.54c-1.85,1.27 -19.69,13.37 -25.44,13.37c-2.54,-0.05 -21.27,7.95 -8.09,10.74Z" style="fill:#ffc1cd;fill-rule:nonzero;"/><path d="M710.981,666.64c-0.57,-5.24 -0.26,-11.48 2.76,-16.91c0,0 0.67,-14.83 14.83,-26.29c14.16,-11.46 29.66,-43.81 29.66,-43.81l8.09,16.85c0,0 12.16,37 24.77,53.42c2.516,3.259 4.23,7.065 5,11.11c0.84,4.46 3.72,10.07 12.68,11.63l0.47,0.08c12.762,2.123 25.657,-3.348 33,-14c6,-8.59 12.71,-20.47 14.35,-32.09c0.374,2.552 0.394,5.143 0.06,7.7c-1.55,11.74 -8.38,23.8 -14.41,32.48c-7.343,10.652 -20.238,16.123 -33,14l-0.47,-0.08c-9,-1.56 -11.84,-7.17 -12.68,-11.63c-0.77,-4.045 -2.484,-7.851 -5,-11.11c-12.61,-16.43 -24.77,-53.42 -24.77,-53.42l-8.09,-16.85c0,0 -15.5,32.35 -29.66,43.81c-14.16,11.46 -14.83,26.29 -14.83,26.29c-1.481,2.734 -2.418,5.729 -2.76,8.82Zm175.66,-87.35c0,0 -29,-0.67 -27,-10.11" style="fill-opacity:0.05;fill-rule:nonzero;"/><path d="M411.321,612.96c0,0 -45,-31 -89,-20c-44,11 -11,49 -11,49l100,-29Z" style="fill:#eed1d7;fill-rule:nonzero;"/><path d="M429.321,592.96c0,0 -44,-19 -74,1c-30,20 -90,30 -90,30" style="fill:#ccb2bb;fill-rule:nonzero;"/><defs><linearGradient id="_Linear1" x1="0" y1="0" x2="1" y2="0" gradientUnits="userSpaceOnUse" gradientTransform="matrix(-8.38883e-17,-1.37,-1.37,8.38883e-17,835.751,359.73)"><stop offset="0" style="stop-color:#808080;stop-opacity:0.0123529"/><stop offset="0.54" style="stop-color:#808080;stop-opacity:0.00588235"/><stop offset="1" style="stop-color:#808080;stop-opacity:0.00490196"/></linearGradient><linearGradient id="_Linear2" x1="0" y1="0" x2="1" y2="0" gradientUnits="userSpaceOnUse" gradientTransform="matrix(-8.38883e-17,-1.37,-1.37,8.38883e-17,835.751,359.04)"><stop offset="0" style="stop-color:#808080;stop-opacity:0.0123529"/><stop offset="0.54" style="stop-color:#808080;stop-opacity:0.00588235"/><stop offset="1" style="stop-color:#808080;stop-opacity:0.00490196"/></linearGradient><linearGradient id="_Linear3" x1="0" y1="0" x2="1" y2="0" gradientUnits="userSpaceOnUse" gradientTransform="matrix(-2.26468e-14,-369.85,-369.85,2.26468e-14,791.461,715.31)"><stop offset="0" style="stop-color:#808080;stop-opacity:0.247059"/><stop offset="0.54" style="stop-color:#808080;stop-opacity:0.117647"/><stop offset="1" style="stop-color:#808080;stop-opacity:0.0980392"/></linearGradient><linearGradient id="_Linear4" x1="0" y1="0" x2="1" y2="0" gradientUnits="userSpaceOnUse" gradientTransform="matrix(-2.08741e-15,-34.09,-34.09,2.08741e-15,783.841,544.58)"><stop offset="0" style="stop-color:#808080;stop-opacity:0.0123529"/><stop offset="0.54" style="stop-color:#808080;stop-opacity:0.00588235"/><stop offset="1" style="stop-color:#808080;stop-opacity:0.00490196"/></linearGradient></defs></svg>