<?xml version="1.0" encoding="UTF-8" standalone="no"?><!DOCTYPE svg PUBLIC "-//W3C//DTD SVG 1.1//EN" "http://www.w3.org/Graphics/SVG/1.1/DTD/svg11.dtd"><svg width="100%" height="100%" viewBox="0 0 208 176" version="1.1" xmlns="http://www.w3.org/2000/svg" xmlns:xlink="http://www.w3.org/1999/xlink" xml:space="preserve" xmlns:serif="http://www.serif.com/" style="fill-rule:evenodd;clip-rule:evenodd;stroke-linejoin:round;stroke-miterlimit:1.41421;"><path d="M113.198,0l-54.252,0c-24.321,0 -47.21,18.427 -47.21,39.77c0,21.812 16.578,39.416 41.321,39.416c1.723,0 3.394,-0.034 5.031,-0.153c-1.606,3.075 -2.754,6.537 -2.754,10.132c0,6.063 3.26,10.977 7.385,14.988c-3.117,0 -6.124,0.091 -9.407,0.091c-30.124,0 -53.312,19.186 -53.312,39.082c0,19.598 25.421,31.853 55.547,31.853c34.344,0 53.313,-19.486 53.313,-39.084c0,-15.712 -4.635,-25.122 -18.969,-35.257c-4.903,-3.471 -14.28,-11.914 -14.28,-16.875c0,-5.816 1.659,-8.681 10.412,-15.52c8.972,-7.01 15.323,-16.867 15.323,-28.329c0,-13.65 -6.079,-26.951 -17.49,-31.339l17.201,0l12.141,-8.775Zm-18.949,132.714c0.431,1.817 0.665,3.687 0.665,5.596c0,15.832 -10.203,28.207 -39.478,28.207c-20.823,0 -35.862,-13.183 -35.862,-29.016c0,-15.518 18.654,-28.436 39.477,-28.212c4.858,0.051 9.388,0.834 13.499,2.165c11.302,7.861 19.412,12.303 21.699,21.26Zm-33.34,-59.059c-13.979,-0.417 -27.261,-15.636 -29.673,-33.988c-2.413,-18.358 6.958,-32.405 20.934,-31.989c13.972,0.421 27.261,15.148 29.674,33.501c2.41,18.358 -6.963,32.895 -20.935,32.476Zm107.553,-34.781l0,-38.874l-12.959,0l0,38.874l-38.877,0l0,12.959l38.877,0l0,38.877l12.959,0l0,-38.877l38.877,0l0,-12.959l-38.877,0Z" style="fill:#fff;fill-rule:nonzero;"/></svg>