<?xml version="1.0" encoding="utf-8"?>
<!-- Generator: Adobe Illustrator 21.0.2, SVG Export Plug-In . SVG Version: 6.00 Build 0)  -->
<svg version="1.1" id="Layer_1" xmlns="http://www.w3.org/2000/svg" xmlns:xlink="http://www.w3.org/1999/xlink" x="0px" y="0px"
	 viewBox="0 0 100 100" style="enable-background:new 0 0 100 100;" xml:space="preserve">
<path d="M14,62.3c0.4-1,1.5-1.5,2.6-1.2l26.2,10c1,0.4,1.6,1.5,1.2,2.6c-0.3,0.8-1.1,1.3-1.9,1.3c-0.2,0-0.5,0-0.7-0.1l-26.2-10
	C14.1,64.5,13.6,63.3,14,62.3z M15.2,25.9l26.2,10c0.2,0.1,0.5,0.1,0.7,0.1c0.8,0,1.6-0.5,1.9-1.3c0.4-1-0.1-2.2-1.2-2.6l-26.2-10
	c-1-0.4-2.2,0.1-2.6,1.2C13.6,24.3,14.1,25.5,15.2,25.9z M15.2,38.9l26.2,10c0.2,0.1,0.5,0.1,0.7,0.1c0.8,0,1.6-0.5,1.9-1.3
	c0.4-1-0.1-2.2-1.2-2.6l-26.2-10c-1-0.4-2.2,0.1-2.6,1.2C13.6,37.3,14.1,38.5,15.2,38.9z M15.2,51.9l26.2,10
	c0.2,0.1,0.5,0.1,0.7,0.1c0.8,0,1.6-0.5,1.9-1.3c0.4-1-0.1-2.2-1.2-2.6l-26.2-10c-1-0.4-2.2,0.1-2.6,1.2
	C13.6,50.3,14.1,51.5,15.2,51.9z M83.4,61.1l-26.2,10c-1,0.4-1.5,1.5-1.2,2.6c0.3,0.8,1.1,1.3,1.9,1.3c0.2,0,0.5,0,0.7-0.1l26.2-10
	c1-0.4,1.5-1.5,1.2-2.6S84.4,60.7,83.4,61.1z M95,13v59.4c0,2.9-1.8,5.5-4.5,6.5l-38,14.5c-0.6,0.2-1.2,0.4-1.9,0.4
	C50.4,94,50.2,94,50,94c-0.2,0-0.4,0-0.6-0.1c-0.6-0.1-1.3-0.2-1.9-0.4L9.5,79C6.8,78,5,75.3,5,72.5V13c0-2.3,1.1-4.5,3-5.8
	c1.9-1.3,4.3-1.6,6.5-0.8l35.2,13.4c0.2,0.1,0.5,0.1,0.7,0c0,0,0,0,0,0L85.5,6.5C87.7,5.7,90.1,6,92,7.3C93.9,8.6,95,10.7,95,13z
	 M47,25.3L12.4,12.1C12.2,12,12.1,12,12,12c-0.3,0-0.4,0.1-0.6,0.2C11.3,12.3,11,12.6,11,13v59.4c0,0.4,0.3,0.8,0.6,0.9L47,86.9
	V25.3z M66,37.1l3.8-2.7c0,0,0,0,0.1,0c0.1,0,0.1-0.1,0.2-0.1c0.1,0,0.1-0.1,0.2-0.1c0.1,0,0.1,0,0.2-0.1c0.1,0,0.1,0,0.2,0
	c0.1,0,0.1,0,0.2,0c0.1,0,0.1,0,0.2,0c0.1,0,0.1,0,0.2,0c0.1,0,0.1,0,0.2,0c0.1,0,0.1,0,0.2,0.1c0.1,0,0.1,0,0.2,0.1
	c0.1,0,0.1,0.1,0.2,0.1c0.1,0,0.1,0.1,0.2,0.1c0,0,0,0,0.1,0l3.8,2.7V16.5l-10,3.8V37.1z M89,13c0-0.5-0.3-0.7-0.4-0.8
	c-0.2-0.1-0.5-0.3-0.9-0.1L80,15v26c0,0,0,0,0,0c0,0.1,0,0.2,0,0.3c0,0,0,0.1,0,0.1c0,0.1,0,0.1-0.1,0.2c0,0.1,0,0.1-0.1,0.2
	c0,0.1-0.1,0.1-0.1,0.2c0,0.1-0.1,0.1-0.1,0.2c0,0,0,0,0,0c0,0,0,0-0.1,0.1c-0.1,0.1-0.1,0.2-0.2,0.2c0,0-0.1,0.1-0.1,0.1
	c-0.1,0.1-0.2,0.1-0.2,0.2c0,0-0.1,0.1-0.1,0.1c-0.1,0-0.2,0.1-0.3,0.1c0,0-0.1,0-0.1,0C78.3,43,78.2,43,78,43c0,0,0,0,0,0
	c0,0,0,0,0,0c0,0,0,0,0,0c-0.2,0-0.4,0-0.5-0.1c0,0-0.1,0-0.1,0c-0.2-0.1-0.3-0.1-0.5-0.2c0,0,0,0,0,0L71,38.4l-5.8,4.2c0,0,0,0,0,0
	c-0.1,0.1-0.3,0.2-0.5,0.2c0,0-0.1,0-0.1,0c-0.2,0-0.3,0.1-0.5,0.1c0,0,0,0,0,0c0,0,0,0,0,0c0,0,0,0,0,0c-0.2,0-0.3,0-0.4-0.1
	c0,0-0.1,0-0.1,0c-0.1,0-0.2-0.1-0.3-0.1c0,0-0.1,0-0.1-0.1c-0.1,0-0.2-0.1-0.2-0.2c0,0-0.1-0.1-0.1-0.1c-0.1-0.1-0.2-0.2-0.2-0.2
	c0,0,0,0-0.1-0.1c0,0,0,0,0,0c0-0.1-0.1-0.1-0.1-0.2c0-0.1-0.1-0.1-0.1-0.2c0-0.1,0-0.1-0.1-0.2c0-0.1,0-0.1-0.1-0.2
	c0,0,0-0.1,0-0.1c0-0.1,0-0.2,0-0.3c0,0,0,0,0,0V21.9l-9,3.4v61.6l35.4-13.5c0.4-0.1,0.6-0.5,0.6-0.9V13z M83.4,48.1l-26.2,10
	c-1,0.4-1.5,1.5-1.2,2.6c0.3,0.8,1.1,1.3,1.9,1.3c0.2,0,0.5,0,0.7-0.1l26.2-10c1-0.4,1.5-1.5,1.2-2.6C85.6,48.2,84.4,47.7,83.4,48.1
	z"/>
</svg>
