<?xml version="1.0" encoding="UTF-8" standalone="no"?><!DOCTYPE svg PUBLIC "-//W3C//DTD SVG 1.1//EN" "http://www.w3.org/Graphics/SVG/1.1/DTD/svg11.dtd"><svg width="100%" height="100%" viewBox="0 0 685 546" version="1.1" xmlns="http://www.w3.org/2000/svg" xmlns:xlink="http://www.w3.org/1999/xlink" xml:space="preserve" xmlns:serif="http://www.serif.com/" style="fill-rule:evenodd;clip-rule:evenodd;stroke-linejoin:round;stroke-miterlimit:1.41421;"><g><path d="M72.493,298.121c24.887,41.483 20.951,97.579 10.71,141.722c-3.428,14.779 -7.39,30.378 -4.133,46.98c3.981,20.316 17.846,36.41 31.801,45.672c25.439,16.888 54.268,16.754 75.06,-0.336c17.967,-14.774 29.617,-40.752 47.971,-54.719c30.714,-23.325 73.365,-8.476 110.517,14.132c26.29,15.992 55.234,36.187 79.244,25.242c16.888,-7.72 27.217,-29.94 31.883,-54.192c2.254,-11.713 3.549,-24.512 8.92,-33.394c3.175,-5.282 7.619,-8.787 12.234,-11.644c42.022,-26.118 99.528,-3.174 140.001,-32.854c27.337,-20.024 42.536,-61.855 47.183,-106.728c4.648,-44.872 -0.12,-92.995 -5.955,-140.394c-4.152,-33.686 -9.662,-69.766 -26.88,-97.332c-18.246,-29.159 -46.637,-42.415 -71.169,-39.996c-24.531,2.419 -45.659,18.411 -63.816,38.047c-22.691,24.513 -43.051,55.92 -72.693,63.57c-20.182,5.206 -42.371,-1.353 -63.918,-5.168c-36.016,-6.381 -71.442,-5.079 -106.62,-3.257c-33.648,1.752 -67.543,4.031 -98.804,16.043c-22.119,8.501 -38.968,26.531 -59.57,38.137c-13.427,7.567 -28.664,8.373 -41.145,18.525c-15.371,12.507 -28.531,35.787 -21.986,65.467c6.203,28.201 27.953,44.46 41.165,66.477Z" style="fill:#ff6347;fill-opacity:0.0980392;fill-rule:nonzero;"/><path d="M283.694,296.775c0,20.792 13.377,38.296 31.572,43.495c7.092,2.027 14.6,2.104 21.732,0.222c18.595,-4.913 32.378,-22.62 32.378,-43.717c0,-22.347 -15.446,-40.891 -35.724,-44.44c-4.845,-0.852 -9.804,-0.827 -14.64,0.076c-20.081,3.727 -35.318,22.176 -35.318,44.364Z" style="fill:#ff6347;fill-rule:nonzero;"/><path d="M315.266,340.277c7.092,2.027 14.6,2.104 21.732,0.222c18.849,-42.822 5.174,-74.445 -3.359,-88.171c-4.845,-0.852 -9.804,-0.826 -14.64,0.077c-31.629,30.295 -16.995,66.877 -3.733,87.872Z" style="fill:#ff6347;fill-rule:nonzero;"/><path d="M315.266,340.277c7.092,2.027 14.6,2.104 21.732,0.222c18.849,-42.822 5.174,-74.445 -3.359,-88.171c-4.845,-0.852 -9.804,-0.826 -14.64,0.077c-31.629,30.295 -16.995,66.877 -3.733,87.872Z" style="fill:#fff;fill-opacity:0.0980392;fill-rule:nonzero;"/><path d="M574.762,281.221c0,0 -54.599,10.158 -93.961,-43.171c0,0 33.013,-32.378 55.869,-25.394c22.855,6.983 38.092,48.249 38.092,48.249l0,20.316Z" style="fill:#ff6347;fill-rule:nonzero;"/><path d="M574.762,281.221c0,0 -54.599,10.158 -93.961,-43.171c0,0 33.013,-32.378 55.869,-25.394c22.855,6.983 38.092,48.249 38.092,48.249l0,20.316Z" style="fill-opacity:0.0980392;fill-rule:nonzero;"/><path d="M549.996,238.05l-55.862,114.911l-13.333,-6.983l57.767,-107.928l11.428,0Z" style="fill:#504f60;fill-rule:nonzero;"/><path d="M480.801,238.05c10.12,0.109 20.188,1.459 29.979,4.019c13.51,3.565 26.356,9.289 38.041,16.951c16.894,11.002 25.941,22.22 25.941,22.22c40.282,-70.819 31.273,-198.523 30.518,-208.3l0,-0.584c-26.709,-0.006 -124.479,165.694 -124.479,165.694Z" style="fill:#ff6347;fill-rule:nonzero;"/><path d="M1.178,375.683l61.881,16.64c0,0 95.23,1.905 128.243,30.474c33.013,28.569 128.878,25.394 131.417,25.394c2.54,0 38.092,-31.108 102.849,1.27c64.756,32.378 142.21,12.062 142.21,12.062c0,0 80.628,33.648 103.483,22.221c22.856,-11.428 8.889,-26.665 8.889,-26.665c0,0 -46.981,-36.187 -10.793,-76.184c36.187,-39.996 -6.349,-39.996 -6.349,-39.996l-122.396,0c-9.989,0.092 -19.848,-2.278 -28.702,-6.901c-9.561,-5.111 -20.811,-3.479 -28.341,-1.327c-6.51,1.85 -13.352,2.219 -20.023,1.079c-61.436,-10.418 -100.639,-7.434 -116.917,-5.161c-6.781,0.937 -13.645,1.106 -20.462,0.501c-20.76,-1.809 -63.842,-5.65 -87.237,-8.431c-6.438,-0.762 -11.383,-1.441 -13.967,-1.981c-7.238,-1.511 -41.406,5.149 -75.969,14.056c-38.193,9.834 -76.876,22.418 -80.209,29.75c-4.596,10.107 -45.107,10.571 -67.143,10.057c-0.014,-0.001 -0.028,-0.001 -0.042,-0.001c-0.878,0 -1.6,0.722 -1.6,1.6c0,0.719 0.484,1.353 1.178,1.543Z" style="fill:#eed1d7;fill-rule:nonzero;"/><path d="M242.091,422.162l15.237,3.174c0,0 60.313,-32.378 68.566,-21.585m-68.566,-74.28c0,0 97.77,-19.681 138.401,3.809" style="fill:#ccb2bb;fill-rule:nonzero;"/><path d="M330.89,364.84c0,0 24.443,-9.993 23.376,-4.279c-1.067,5.713 -13.561,11.427 -13.561,11.427c0,0 24.62,-2.139 23.554,6.425c0,0 -28.188,-0.711 -27.122,5.714c1.067,6.425 0,14.989 -4.641,13.205c-4.64,-1.784 -7.491,-22.481 -19.985,-12.488c-12.494,9.993 -10.704,-10.348 4.641,-12.132c0,0 -8.209,-6.069 -7.492,-8.92c0.718,-2.851 21.23,1.048 21.23,1.048Z" style="fill-opacity:0.0980392;fill-rule:nonzero;"/><path d="M331.246,363.767c0,0 24.442,-9.993 23.376,-4.279c-1.067,5.713 -13.561,11.427 -13.561,11.427c0,0 24.62,-2.139 23.553,6.425c0,0 -28.188,-0.711 -27.121,5.714c1.066,6.425 0,14.989 -4.641,13.205c-4.641,-1.784 -7.491,-22.48 -19.986,-12.488c-12.494,9.993 -10.704,-10.348 4.641,-12.132c0,0 -8.209,-6.069 -7.491,-8.92c0.717,-2.85 21.23,1.048 21.23,1.048Z" style="fill:#f89898;fill-rule:nonzero;"/><path d="M141.147,383.435c0,0 34.918,-10.793 38.092,-8.888m232.997,18.411c0,0 -46.98,-13.332 -64.757,-3.174" style="fill:#ccb2bb;fill-rule:nonzero;"/><path d="M334.464,338.677c0,0 -12.697,-37.457 -38.092,-29.839c-25.394,7.618 -44.44,27.299 -44.44,27.299l82.532,6.349l0,-3.809Z" style="fill:#eed1d7;fill-rule:nonzero;"/><path d="M610.632,380.578c0,0 -19.681,8.253 -52.694,5.079c-33.013,-3.174 -59.043,16.506 -59.043,16.506" style="fill:#ccb2bb;fill-rule:nonzero;"/><path d="M510.78,242.069c13.51,3.565 26.356,9.289 38.041,16.951l56.459,-186.08l0.273,-0.901l-0.299,0.533l-94.474,169.497Z" style="fill:#fff;fill-opacity:0.0980392;fill-rule:nonzero;"/><path d="M244.415,301.239c0,0 -39.92,-18.539 -71.016,11.135c0,0 19.496,21.814 27.845,18.1c8.348,-3.714 33.419,-10.208 36.187,-17.173c1.768,-4.32 4.118,-8.378 6.984,-12.062Z" style="fill:#ff6347;fill-rule:nonzero;"/><path d="M244.415,301.239c0,0 -39.92,-18.539 -71.016,11.135c0,0 19.496,21.814 27.845,18.1c8.348,-3.714 33.419,-10.208 36.187,-17.173c1.768,-4.32 4.118,-8.378 6.984,-12.062Z" style="fill-opacity:0.0470588;fill-rule:nonzero;"/><path d="M177.754,334.258l2.12,8.069l0.87,3.308l8.438,32.188l54.3,0l0,-52.396c-4.705,-0.559 -8.323,-1.054 -10.209,-1.447c-5.295,-1.105 -30.27,3.796 -55.519,10.278Z" style="fill-opacity:0.0980392;fill-rule:nonzero;"/><path d="M173.399,312.374l0.635,2.489l6.748,25.61l0.87,3.308l8.456,32.181l54.307,0l0,-74.723c-0.779,0.512 -1.555,1.003 -2.33,1.472c-33.502,20.532 -65.188,10.831 -68.413,9.758l-0.273,-0.095Z" style="fill:#ff6347;fill-rule:nonzero;"/><path d="M173.729,313.631l-0.33,-1.27l0.266,0.096c1.518,0.501 9.346,2.92 20.697,3.174c-6.935,0.196 -13.866,-0.476 -20.633,-2Zm68.35,-10.92c0.774,-0.469 1.551,-0.96 2.33,-1.472l0,74.723l-4.178,0l0,-72.146c0.616,-0.362 1.232,-0.724 1.848,-1.105Z" style="fill:#fff;fill-opacity:0.0980392;fill-rule:nonzero;"/><path d="M163.933,328.512c0.87,6.114 6.825,11.244 17.719,15.269c0.491,0.186 0.992,0.368 1.505,0.546c3.408,1.199 6.995,1.815 10.608,1.822c11.498,0 23.186,-6.279 34.34,-18.557c6.325,-7.107 11.799,-14.929 16.31,-23.306l0,-3.047c-0.779,0.512 -1.555,1.003 -2.33,1.472c-4.45,8.277 -9.846,16.009 -16.081,23.04c-13.967,15.376 -28.087,20.741 -41.901,15.941c-1.15,-0.4 -2.242,-0.806 -3.283,-1.225c-8.685,-3.498 -13.421,-7.618 -14.094,-12.348c-0.844,-5.936 5.079,-11.428 7.358,-13.263c0.508,-0.412 0.826,-0.634 0.845,-0.634l-1.232,-1.74l-0.374,-0.533c-0.47,0.292 -10.654,7.606 -9.39,16.563Z" style="fill:#504f60;fill-rule:nonzero;"/><circle cx="157.337" cy="165.993" r="41.901" style="fill:#ffdf9c;"/><path d="M530.696,228.381c-0.158,-0.261 -0.231,-0.565 -0.21,-0.87c0.093,0.284 0.163,0.575 0.21,0.87Z" style="fill:url(#_Linear1);fill-rule:nonzero;"/><path d="M530.696,227.943c-0.158,-0.261 -0.231,-0.565 -0.21,-0.87c0.093,0.284 0.163,0.575 0.21,0.87Z" style="fill:url(#_Linear2);fill-rule:nonzero;"/><path d="M338.902,429.837c0.991,0.495 9.123,-0.692 15.993,-1.815c-3.702,-0.845 -6.413,-1.969 -7.689,-3.435c-7.383,-8.488 25.141,-3.574 35.426,-1.841l8.253,-1.657l9.269,-2.14c6.393,-8.983 16.081,-27.204 20.773,-36.238c-1.555,-0.349 -2.539,-0.521 -2.539,-0.521c0.076,-0.285 0.152,-0.558 0.228,-0.831l-0.228,-0.038c8.742,-33.217 23.598,-28.411 23.598,-28.411c1.777,0 4.387,0.769 7.472,2.026c1.017,-3.528 2.308,-6.971 3.86,-10.298l0.362,-0.781l-1.644,0.311c0,0 0.082,-0.228 0.253,-0.635l-0.152,0l-0.362,0.07l-0.222,0l-0.381,0.076c0,0 11.999,-32.562 37.508,-52.154c6.75,-5.251 14.829,-8.525 23.331,-9.453c0.451,-0.044 0.889,-0.083 1.327,-0.114l0.394,0l0.978,-0.045l0.685,0c5.79,-0.082 10.012,1.346 14.888,3.809c0.889,0.438 1.797,0.908 2.736,1.423c0.73,-0.089 1.455,-0.218 2.171,-0.388c0.39,-0.093 0.771,-0.201 1.143,-0.324c-11.934,-5.417 -17.509,-19.506 -12.513,-31.622c-1.73,-3.056 -4.381,-5.49 -7.574,-6.952c-0.401,-0.137 -0.76,-0.375 -1.041,-0.692c-0.227,-0.397 -0.328,-0.853 -0.292,-1.308l0,-0.419c-0.049,-4.229 3.092,-7.874 7.282,-8.45c1.208,-0.175 2.387,-0.514 3.504,-1.009c2.711,-1.232 4.927,-3.981 5.079,-6.832c-0.006,-0.255 -0.029,-0.509 -0.07,-0.761l0.064,0.095c0,-0.178 -0.038,-0.356 -0.064,-0.533c0.791,1.095 2.325,1.377 3.454,0.634c0.903,-0.782 1.406,-1.935 1.365,-3.129c-0.012,-0.328 -0.046,-0.655 -0.102,-0.978c-0.2,-0.899 -0.311,-1.816 -0.33,-2.736c-0.044,-0.972 0.14,-1.861 0.927,-2.375c1.67,2.057 4.374,3.035 6.984,3.244c2.609,0.21 5.282,-0.254 7.904,-0.603c6.494,-0.889 13.789,-0.793 18.671,3.555c3.175,2.826 4.781,6.984 6.266,10.958c2.102,5.625 4.203,11.733 4.14,17.599c0.057,2.742 -0.464,5.466 -1.53,7.993c-2.045,4.71 -6.197,8.431 -7.466,13.408c-0.19,1.17 -0.525,2.31 -0.997,3.397c-1.149,2.101 -3.809,2.945 -6.228,2.622c-0.908,0.902 -1.884,1.732 -2.921,2.482c0,0.273 0.045,0.552 0.07,0.825c0.165,1.721 0.394,3.422 0.711,5.079c0.197,-0.279 0.464,-0.127 1.27,-0.127l0.343,0l0.317,0.038l0.343,0.058l0.076,0l0.4,0.082l0.438,0.108l0.057,0l0.489,0.133l0.534,0.153c1.523,0.457 3.377,1.123 5.332,1.904c0.797,-4.847 3.064,-9.334 6.495,-12.849c-0.68,-0.937 -1.233,-1.96 -1.644,-3.041c-0.635,-1.778 0,-3.003 1.168,-4.057c1.067,-0.993 2.22,-1.888 3.447,-2.673c5.352,-3.967 11.434,-6.839 17.897,-8.45c2.076,-0.596 4.239,-0.821 6.393,-0.667c2.027,0.299 3.992,0.927 5.816,1.86c2.937,1.372 5.75,2.996 8.405,4.857c1.784,1.27 3.537,2.629 5.594,3.34c3.091,1.072 6.666,0.571 9.523,2.183c3.987,2.254 4.882,7.663 4.291,12.209c-0.59,4.546 -6.878,11.726 -6.161,16.253c1.073,6.774 11.621,8.932 17.018,13.16c1.701,1.334 3.523,2.895 3.809,5.041c0.165,1.34 -0.33,2.66 -0.743,3.949c-2.277,7.046 -2.159,14.652 0.336,21.624c2.548,6.966 7.574,12.757 14.113,16.259c2.483,1.269 5.492,2.622 6.07,5.358c0.393,1.841 -0.476,3.466 -1.905,4.768c-1.383,1.378 -3.058,2.428 -4.901,3.073c-2.719,1.004 -5.53,1.737 -8.393,2.19c-2.539,0.4 -5.212,0.552 -7.51,-0.553c-2.673,-1.269 -4.305,-4.012 -5.714,-6.621c-3.613,-6.666 -7.765,-11.104 -11.193,-16.469c-0.451,1.962 -0.819,3.327 -0.838,3.403c2.844,2.54 4.178,6.781 2.622,13.561c-6.12,26.664 -13.967,33.216 -13.967,33.216c-0.218,-1.44 -0.773,-2.808 -1.619,-3.993l-0.349,0.419c-3.733,4.533 -8.018,9.25 -11.58,11.872c-4.084,3.01 -7.776,6.518 -10.99,10.444c-0.314,0.389 -0.485,0.874 -0.485,1.375c0,0.837 0.48,1.605 1.235,1.97c5.605,2.73 17.858,9.739 3.244,12.869c-14.615,3.13 -26.538,-5.155 -30.722,-8.615c-0.919,-0.759 -1.062,-2.135 -0.317,-3.067l13.332,-16.633l1.594,-2.07c-0.883,0.635 -1.778,1.27 -2.705,1.956l2.375,-3.81l-7.517,0.781c-0.216,0.457 -0.438,0.908 -0.635,1.34c-1.498,3.079 -3.085,5.479 -4.736,6.818c0.151,3.092 -0.589,6.162 -2.133,8.844c-6,10.875 -39.032,10.793 -48.288,10.571c-0.862,0.137 -1.732,0.222 -2.603,0.254c-1.443,0.047 -2.888,-0.048 -4.311,-0.286l-0.305,-0.051c-1.801,-0.263 -3.511,-0.965 -4.977,-2.044l-13.148,-2.629l-0.299,0.07c-7.421,1.53 -21.541,3.975 -29.648,2.419c-7.771,-1.492 -12.272,1.098 -14.342,2.889c0.224,0.798 0.489,1.584 0.794,2.355l-0.114,0c0.514,1.143 2.431,6.666 -5.352,12.894c-5.079,4.063 -39.705,5.124 -51.57,2.622c-8.546,-1.803 3.599,-6.983 5.244,-6.983c3.726,0 15.294,-7.847 16.506,-8.666l1.27,-1.702c-8.044,1.073 -22.22,2.775 -24.995,1.842c-3.936,-1.315 -21.414,0.876 -21.414,0.876c0,0 -23.598,5.244 -34.962,1.746c-11.364,-3.499 0.419,-10.907 2.171,-10.038Z" style="fill:url(#_Linear3);fill-rule:nonzero;"/><path d="M493.175,337.629c1.378,0.591 4.653,3.676 8.888,8.107c1.352,-8.888 2.222,-16.912 1.657,-20.245c-0.049,-0.498 -0.222,-0.976 -0.501,-1.391c-2.54,-0.171 -7.733,6.203 -11.879,11.974c1.168,0.914 1.835,1.555 1.835,1.555Z" style="fill:url(#_Linear4);fill-rule:nonzero;"/><path d="M425.352,376.547c0,0 -22.22,44.072 -27.813,45.786c-5.594,1.714 -9.416,-0.857 -9.416,-0.857c0,0 -46.212,-8.558 -37.654,1.27c8.559,9.828 83.441,3.853 83.441,3.853l18.805,-42.32l-27.363,-7.732Z" style="fill:#ffbbb0;fill-rule:nonzero;"/><clipPath id="_clip5"><path d="M425.352,376.547c0,0 -22.22,44.072 -27.813,45.786c-5.594,1.714 -9.416,-0.857 -9.416,-0.857c0,0 -46.212,-8.558 -37.654,1.27c8.559,9.828 83.441,3.853 83.441,3.853l18.805,-42.32l-27.363,-7.732Z" clip-rule="nonzero"/></clipPath><g clip-path="url(#_clip5)"><g><g style="filter:url(#_Effect6);"><path d="M431.681,368.623l-8.135,26.086l-31.416,33.38l-44.038,-10.94l39.831,-22.159l43.758,-26.367Z" style="fill:#fff;"/></g></g></g><path d="M489.086,377.404c0,0 -35.946,-23.96 -45.786,-23.96c0,0 -14.551,-4.705 -23.109,27.813c0,0 29.527,5.136 29.096,19.256l5.561,-11.98l23.96,26.531l29.096,-19.681l-18.818,-17.979Z" style="fill-opacity:0.0980392;fill-rule:nonzero;"/><path d="M489.086,376.547c0,0 -35.946,-23.96 -45.786,-23.96c0,0 -14.551,-4.705 -23.109,27.813c0,0 29.527,5.136 29.096,19.256l5.561,-11.98l23.96,26.531l29.096,-19.681l-18.818,-17.979Z" style="fill:#5d526e;fill-rule:nonzero;"/><path d="M449.725,364.567c2.139,10.272 13.262,11.98 13.262,11.98l15.834,-9.841c0,0 2.234,-14.742 4.12,-23.725c0.724,-3.454 1.397,-6.057 1.873,-6.653c1.714,-2.14 -25.249,-1.714 -25.249,-1.714c-1.892,3.197 -3.616,6.493 -5.161,9.872c-2.933,6.418 -5.822,14.595 -4.679,20.081Zm68.464,-77.422l8.983,42.79l21.82,-5.562c0,0 20.113,-15.865 14.126,-25.706c-1.962,-3.218 -2.958,-7.897 -3.415,-12.741c-0.94,-9.974 0.419,-20.64 0.419,-20.64c0,0 -23.96,-6.418 -19.256,11.123c1.905,7.206 -1.543,10.297 -6.317,11.428c-6.85,1.657 -16.36,-0.692 -16.36,-0.692Z" style="fill:#f5b4a9;fill-rule:nonzero;"/><path d="M534.549,287.856c3.404,1.77 7.185,2.691 11.022,2.685c5.282,0 10.373,-3.308 14.335,-6.203c-0.549,-6.34 -0.476,-12.719 0.216,-19.046c0.691,-6.326 -23.96,-6.418 -19.256,11.123c1.936,7.206 -1.543,10.298 -6.317,11.441Z" style="fill-opacity:0.0980392;fill-rule:nonzero;"/><circle cx="545.571" cy="265.718" r="23.96" style="fill:#ffc2b8;"/><clipPath id="_clip7"><circle cx="545.571" cy="265.718" r="23.96"/></clipPath><g clip-path="url(#_clip7)"><g opacity="0.5"><g style="filter:url(#_Effect8);"><path d="M525.253,249.049l-1.973,17.281l5.366,13.178l7.575,5.918l1.026,3.788l-31.564,-6.076l11.6,-27.303l7.97,-6.786" style="fill:#fff;"/></g></g></g><path d="M534.154,265.101c1.003,-0.449 2.182,0.001 2.63,1.005c0.449,1.003 -0.001,2.182 -1.004,2.63c-1.003,0.449 -2.182,-0.001 -2.631,-1.004c-0.449,-1.004 0.002,-2.182 1.005,-2.631Z" style="fill:#513335;"/><path d="M547.367,315.714l-6.501,9.065l-3.695,-13.402c-1.428,-5.362 -2.181,-10.881 -2.241,-16.43c-0.034,-2.353 -0.802,-4.638 -2.197,-6.533c-6.666,-3.638 -11.618,-5.555 -20.023,-4.691c-8.329,0.907 -16.243,4.112 -22.855,9.256c-24.976,19.186 -36.721,51.062 -36.721,51.062c0,0 34.245,-6.863 32.53,0.838c0,0 14.977,-23.96 18.412,-20.112c3.434,3.847 -7.276,54.77 -7.276,54.77l70.178,5.136l18.411,-48.783l-0.857,-36.372c0,0 -18.189,-8.342 -22.036,-8.342c-1.346,0 -1.143,-0.47 -1.714,1.714c-2.216,8.406 -8.355,15.757 -13.415,22.824Z" style="fill-opacity:0.0980392;fill-rule:nonzero;"/><path d="M454.404,344.486c5.955,-1.073 22.81,-3.809 28.537,-1.505c0.724,-3.454 1.397,-6.057 1.873,-6.653c1.714,-2.14 -25.249,-1.714 -25.249,-1.714c-1.892,3.197 -3.616,6.493 -5.161,9.872Z" style="fill-opacity:0.0980392;fill-rule:nonzero;"/><path d="M546.51,315.276l-6.501,9.065l-3.695,-13.402c-1.428,-5.362 -2.181,-10.881 -2.241,-16.43c-0.032,-2.352 -0.797,-4.637 -2.19,-6.533c-6.666,-3.638 -11.618,-5.555 -20.024,-4.691c-8.329,0.907 -16.243,4.112 -22.855,9.256c-24.976,19.186 -36.721,51.062 -36.721,51.062c0,0 34.232,-6.844 32.518,0.857c0,0 14.977,-23.96 18.411,-20.112c3.435,3.847 -7.275,54.77 -7.275,54.77l70.178,5.161l18.411,-48.783l-0.857,-36.372c0,0 -18.189,-8.342 -22.036,-8.342c-1.346,0 -1.143,-0.469 -1.714,1.714c-2.21,8.374 -8.349,15.726 -13.409,22.78Z" style="fill:#dfecfb;fill-rule:nonzero;"/><path d="M562.21,282.65c2.407,0.431 5.206,-0.381 6.349,-2.54c0.463,-1.064 0.792,-2.181 0.978,-3.326c1.269,-4.876 5.307,-8.514 7.307,-13.13c3.371,-7.777 0.413,-16.69 -2.539,-24.632c-1.461,-3.898 -3.029,-7.962 -6.14,-10.73c-4.78,-4.253 -11.916,-4.355 -18.258,-3.517c-2.54,0.337 -5.155,0.794 -7.739,0.591c-2.584,-0.204 -5.232,-1.162 -6.87,-3.175c-1.377,0.895 -0.869,2.965 -0.584,4.578c0.286,1.612 0.051,3.466 -1.269,4.444c-1.321,0.977 -3.695,0.171 -3.587,-1.441c1.155,3.428 -1.397,7.218 -4.692,8.71c-1.095,0.486 -2.25,0.819 -3.435,0.99c-4.077,0.612 -7.102,4.189 -7.028,8.311l0,0.038c-0.033,0.442 0.067,0.884 0.286,1.27c0.275,0.308 0.625,0.54 1.016,0.673c3.322,1.521 6.039,4.115 7.713,7.364c0.889,1.733 1.556,3.739 3.175,4.8c2.012,1.269 4.641,0.634 7.028,0.838c4.031,0.384 7.446,3.186 8.608,7.066c0.553,1.981 0.483,4.139 1.721,5.904c0.533,0.804 1.387,1.341 2.343,1.473c1.853,0.203 2.711,-1.467 4.037,-2.324c3.13,-2.019 5.124,0.635 6.114,3.175c1.105,2.736 1.86,3.948 5.466,4.59Z" style="fill-opacity:0.0980392;fill-rule:nonzero;"/><path d="M562.21,282.218c2.407,0.432 5.206,-0.381 6.349,-2.539c0.463,-1.065 0.792,-2.182 0.978,-3.327c1.269,-4.876 5.307,-8.514 7.307,-13.129c3.371,-7.777 0.413,-16.691 -2.539,-24.633c-1.461,-3.898 -3.029,-7.961 -6.14,-10.729c-4.78,-4.254 -11.916,-4.356 -18.258,-3.518c-2.54,0.337 -5.155,0.794 -7.739,0.591c-2.584,-0.203 -5.232,-1.162 -6.87,-3.174c-1.377,0.895 -0.869,2.964 -0.584,4.577c0.286,1.613 0.051,3.466 -1.269,4.444c-1.321,0.978 -3.695,0.171 -3.587,-1.441c1.155,3.428 -1.397,7.218 -4.692,8.71c-1.095,0.486 -2.25,0.819 -3.435,0.991c-4.09,0.587 -7.14,4.16 -7.079,8.291l0,0.038c-0.033,0.442 0.067,0.884 0.286,1.27c0.275,0.308 0.625,0.54 1.016,0.673c3.322,1.522 6.039,4.116 7.714,7.364c0.888,1.733 1.555,3.74 3.174,4.8c2.012,1.27 4.641,0.635 7.028,0.838c4.031,0.384 7.446,3.186 8.609,7.066c0.552,1.981 0.482,4.139 1.72,5.904c0.533,0.804 1.387,1.341 2.343,1.473c1.854,0.203 2.711,-1.466 4.038,-2.323c3.13,-2.019 5.123,0.634 6.113,3.174c1.156,2.781 1.911,3.968 5.517,4.609Z" style="fill:#4c2e30;fill-rule:nonzero;"/><clipPath id="_clip9"><path d="M562.21,282.218c2.407,0.432 5.206,-0.381 6.349,-2.539c0.463,-1.065 0.792,-2.182 0.978,-3.327c1.269,-4.876 5.307,-8.514 7.307,-13.129c3.371,-7.777 0.413,-16.691 -2.539,-24.633c-1.461,-3.898 -3.029,-7.961 -6.14,-10.729c-4.78,-4.254 -11.916,-4.356 -18.258,-3.518c-2.54,0.337 -5.155,0.794 -7.739,0.591c-2.584,-0.203 -5.232,-1.162 -6.87,-3.174c-1.377,0.895 -0.869,2.964 -0.584,4.577c0.286,1.613 0.051,3.466 -1.269,4.444c-1.321,0.978 -3.695,0.171 -3.587,-1.441c1.155,3.428 -1.397,7.218 -4.692,8.71c-1.095,0.486 -2.25,0.819 -3.435,0.991c-4.09,0.587 -7.14,4.16 -7.079,8.291l0,0.038c-0.033,0.442 0.067,0.884 0.286,1.27c0.275,0.308 0.625,0.54 1.016,0.673c3.322,1.522 6.039,4.116 7.714,7.364c0.888,1.733 1.555,3.74 3.174,4.8c2.012,1.27 4.641,0.635 7.028,0.838c4.031,0.384 7.446,3.186 8.609,7.066c0.552,1.981 0.482,4.139 1.72,5.904c0.533,0.804 1.387,1.341 2.343,1.473c1.854,0.203 2.711,-1.466 4.038,-2.323c3.13,-2.019 5.123,0.634 6.113,3.174c1.156,2.781 1.911,3.968 5.517,4.609Z" clip-rule="nonzero"/></clipPath><g clip-path="url(#_clip9)"><g><g style="filter:url(#_Effect10);"><path d="M504.919,238.937c8.964,0.543 16.064,8.76 23.29,14.613c1.108,0.916 1.297,1.116 1.886,1.683c0.602,0.58 1.421,1.424 1.421,1.424c7.754,1.502 15.209,3.614 23.36,7.562c2.192,1.052 5.315,2.251 5.315,2.251c7.488,3.038 11.805,12.049 9.336,19.626c-2.665,8.182 -12.538,12.779 -20.903,9.779c-6.228,-2.234 -46.409,-34.014 -48.111,-36.855c-5.503,-9.19 -8.822,-19.755 3.291,-20.091c0.372,-0.01 0.743,-0.001 1.115,0.008Z" style="fill:#905d5c;fill-rule:nonzero;"/></g></g></g><path d="M494.146,292.103c-23.103,17.744 -34.886,46.345 -36.524,50.542c-3.174,0.52 -5.333,0.952 -5.333,0.952c0,0 11.746,-31.883 36.721,-51.062c6.612,-5.145 14.527,-8.35 22.855,-9.257c1.099,-0.112 2.203,-0.178 3.308,-0.197c-7.663,1.164 -14.903,4.27 -21.027,9.022Zm70.877,-0.07c-2.197,8.406 -8.336,15.757 -13.402,22.817l-6.501,9.066l-1.34,-4.863l2.705,-3.771c5.079,-7.06 11.205,-14.412 13.402,-22.817c0.571,-2.178 0.362,-1.714 1.714,-1.714c1.212,0.113 2.405,0.382 3.549,0.8l-0.127,0.482Zm-77.936,48.91c-1.391,2.089 -2.28,3.511 -2.28,3.511c0.75,-3.358 -5.345,-3.949 -12.456,-3.549c5.581,-0.59 11.371,-0.851 14.736,0.038Zm16.627,-15.224c2.025,-1.905 3.726,-2.825 4.634,-1.809c3.422,3.853 -7.275,54.77 -7.275,54.77l65.334,4.78l-0.292,0.781l-70.178,-5.136c0,0 9.313,-44.345 7.777,-53.386Z" style="fill-opacity:0.0470588;fill-rule:nonzero;"/><path d="M568.553,427.59c4.095,3.39 15.719,11.51 30.08,8.431c14.36,-3.079 2.304,-9.929 -3.175,-12.602c-0.736,-0.359 -1.205,-1.11 -1.205,-1.929c0,-0.49 0.167,-0.966 0.475,-1.347c3.145,-3.842 6.758,-7.276 10.755,-10.222c3.485,-2.539 7.688,-7.186 11.339,-11.624c1.904,-2.324 3.682,-4.59 5.123,-6.495c0.282,-0.372 0.435,-0.827 0.435,-1.295c0,-1.177 -0.968,-2.146 -2.146,-2.146c-0.192,0 -0.383,0.026 -0.568,0.077l-28.055,7.618c-0.439,0.119 -0.828,0.375 -1.111,0.73l-22.246,27.807c-0.727,0.908 -0.594,2.25 0.299,2.997Z" style="fill:#f5b4a9;fill-rule:nonzero;"/><path d="M581.275,408.303c23.408,-17.072 32.245,-14.025 35.553,-10.006c1.905,-2.324 3.682,-4.59 5.123,-6.495c0.282,-0.372 0.435,-0.827 0.435,-1.295c0,-1.177 -0.968,-2.146 -2.146,-2.146c-0.191,0 -0.383,0.026 -0.568,0.077l-28.055,7.618c-0.438,0.119 -0.827,0.375 -1.111,0.73l-9.231,11.517Z" style="fill-opacity:0.0980392;fill-rule:nonzero;"/><path d="M600.772,355.577c0,0 37.654,-12.412 31.667,13.694c-5.986,26.106 -13.694,32.518 -13.694,32.518c0,0 -2.139,-20.538 -38.511,6.418l12.837,-20.538l-14.976,-18.83l22.677,-13.262Z" style="fill:#5d526e;fill-rule:nonzero;"/><path d="M609.756,332.042c0,0 3.422,17.973 -8.984,39.794c-9.834,17.3 1.841,25.185 7.098,27.712c1.409,0.678 3.103,0.395 4.216,-0.705c3.466,-3.428 10.113,-12.126 6.228,-25.725l-2.54,-6.844l14.12,-10.272c0,0 3.809,-14.17 2.126,-17.357c-1.682,-3.187 -15.389,-11.745 -15.389,-11.745l-6.875,5.142Z" style="fill-opacity:0.0980392;fill-rule:nonzero;"/><path d="M609.756,331.192c0,0 3.422,17.973 -8.984,39.793c-9.834,17.3 1.841,25.185 7.098,27.712c1.409,0.679 3.103,0.396 4.216,-0.705c3.466,-3.428 10.113,-12.126 6.228,-25.724l-2.54,-6.844l14.12,-10.272c0,0 3.809,-14.171 2.126,-17.358c-1.682,-3.187 -15.389,-11.745 -15.389,-11.745l-6.875,5.143Z" style="fill:#ffbeb4;fill-rule:nonzero;"/><clipPath id="_clip11"><path d="M609.756,331.192c0,0 3.422,17.973 -8.984,39.793c-9.834,17.3 1.841,25.185 7.098,27.712c1.409,0.679 3.103,0.396 4.216,-0.705c3.466,-3.428 10.113,-12.126 6.228,-25.724l-2.54,-6.844l14.12,-10.272c0,0 3.809,-14.171 2.126,-17.358c-1.682,-3.187 -15.389,-11.745 -15.389,-11.745l-6.875,5.143Z" clip-rule="nonzero"/></clipPath><g clip-path="url(#_clip11)"><g opacity="0.4"><g style="filter:url(#_Effect12);"><path d="M614.564,319.727l1.174,21.328l-7.239,29.155l-12.915,21.328l-6.653,-8.414l15.654,-57.332l9.979,-6.065Z" style="fill:#fff;"/></g></g></g><path d="M578.52,296.96c0,0 30.81,17.541 43.641,29.096c12.831,11.554 10.272,15.401 10.272,15.401c0,0 -12.412,-23.109 -23.109,-2.996c0,0 -29.953,-21.821 -38.092,-12.412c-8.139,9.409 7.288,-29.089 7.288,-29.089Z" style="fill:#dfecfb;fill-rule:nonzero;"/><path d="M590.075,397.942l-25.674,-5.137l2.99,13.263l18.608,-1.936l4.076,-6.19Z" style="fill:#5d526e;fill-rule:nonzero;"/><path d="M545.571,341.457l0.857,9.416l30.81,-5.137l9.415,-5.993l14.119,-5.136c-1.666,-4.589 -1.927,-9.572 -0.749,-14.31c0.535,-2.043 1.364,-3.998 2.463,-5.802c5.993,-9.841 -25.248,-5.562 -25.248,-5.562c0.338,2.218 0.495,4.461 0.469,6.704c-0.063,7.149 -2.088,17.231 -13.332,15.548l-9.415,5.562l-9.389,4.71Z" style="fill:#ffbeb4;fill-rule:nonzero;"/><clipPath id="_clip13"><path d="M545.571,341.457l0.857,9.416l30.81,-5.137l9.415,-5.993l14.119,-5.136c-1.666,-4.589 -1.927,-9.572 -0.749,-14.31c0.535,-2.043 1.364,-3.998 2.463,-5.802c5.993,-9.841 -25.248,-5.562 -25.248,-5.562c0.338,2.218 0.495,4.461 0.469,6.704c-0.063,7.149 -2.088,17.231 -13.332,15.548l-9.415,5.562l-9.389,4.71Z" clip-rule="nonzero"/></clipPath><g clip-path="url(#_clip13)"><path d="M573.967,317.551c0,0 12.829,3.327 15.237,-0.305c2.409,-3.632 -11.966,-7.037 -11.966,-7.037l-3.271,7.342Z" style="fill:#8e7677;fill-opacity:0.6;"/></g><path d="M575.955,328.195c0,0 -15.833,-6.844 -23.534,7.276c-7.701,14.119 -11.129,13.256 -11.129,13.256l15.401,-9.841l19.262,-10.691Z" style="fill:#ffbbb0;fill-rule:nonzero;"/><path d="M562.687,399.656c0,0 11.979,9.84 5.136,22.22c-6.844,12.38 -49.634,10.272 -49.634,10.272c0,0 27.166,-10.208 20.43,-44.441c-0.007,-0.006 19.363,5.53 24.068,11.949Zm-56.91,14.544l4.279,16.259l-14.976,-3.009c0,0 6.418,-13.694 5.561,-17.541c-0.857,-3.848 5.136,4.291 5.136,4.291Z" style="fill:#5f5470;fill-rule:nonzero;"/><path d="M493.797,394.52c0,0 -38.936,3.853 -49.634,9.84l-8.132,2.54c0,0 -2.997,-0.858 -9.416,4.704l-33.375,7.701l-25.661,5.168c0,0 -23.534,4.279 -25.249,3.422c-1.714,-0.857 -13.262,6.418 -2.139,9.84c11.123,3.422 34.232,-1.714 34.232,-1.714c0,0 17.141,-2.14 20.951,-0.857c3.809,1.282 29.953,-2.54 29.953,-2.54l25.674,1.714c0,0 4.279,-6.418 15.402,-4.279c7.942,1.524 21.763,-0.869 29.026,-2.368c2.871,-0.589 5.112,-2.87 5.65,-5.751l2.539,-13.707l-9.821,-13.713Z" style="fill:#f5b4a9;fill-rule:nonzero;"/><clipPath id="_clip14"><path d="M493.797,394.52c0,0 -38.936,3.853 -49.634,9.84l-8.132,2.54c0,0 -2.997,-0.858 -9.416,4.704l-33.375,7.701l-25.661,5.168c0,0 -23.534,4.279 -25.249,3.422c-1.714,-0.857 -13.262,6.418 -2.139,9.84c11.123,3.422 34.232,-1.714 34.232,-1.714c0,0 17.141,-2.14 20.951,-0.857c3.809,1.282 29.953,-2.54 29.953,-2.54l25.674,1.714c0,0 4.279,-6.418 15.402,-4.279c7.942,1.524 21.763,-0.869 29.026,-2.368c2.871,-0.589 5.112,-2.87 5.65,-5.751l2.539,-13.707l-9.821,-13.713Z" clip-rule="nonzero"/></clipPath><g clip-path="url(#_clip14)"><g><g style="filter:url(#_Effect15);"><path d="M503.208,391.624l-35.623,10.939l-79.382,20.757l-56.661,7.854l5.049,-10.098l101.822,-23.842l58.624,-12.062l6.171,6.452Z" style="fill:#fff;"/></g></g></g><path d="M577.72,315.644c6.137,5.279 14.579,7.042 22.316,4.66c0.534,-2.044 1.364,-3.999 2.463,-5.803c5.993,-9.84 -25.249,-5.561 -25.249,-5.561c0.339,2.218 0.496,4.46 0.47,6.704Z" style="fill-opacity:0.0980392;fill-rule:nonzero;"/><path d="M576.118,273.256c-5.75,1.961 -10.686,6.016 -11.498,7.498c-0.812,1.481 0.042,4.567 0.654,5.514c1.745,2.701 3.1,5.776 3.129,9.049c0.052,6.029 -4.646,8.621 -3.396,9.127c1.038,0.42 2.615,1.731 6.062,1.038c1.472,-0.289 2.412,12.217 6.597,12.943c6.811,1.181 9.031,-5.8 9.35,-6.073c3.292,-2.822 9.78,-2.57 10.418,-9.743c0.6,-6.744 3.064,-37.668 -21.316,-29.353Z" style="fill:#ffbbb0;"/><clipPath id="_clip16"><path d="M576.118,273.256c-5.75,1.961 -10.686,6.016 -11.498,7.498c-0.812,1.481 0.042,4.567 0.654,5.514c1.745,2.701 3.1,5.776 3.129,9.049c0.052,6.029 -4.646,8.621 -3.396,9.127c1.038,0.42 2.615,1.731 6.062,1.038c1.472,-0.289 2.412,12.217 6.597,12.943c6.811,1.181 9.031,-5.8 9.35,-6.073c3.292,-2.822 9.78,-2.57 10.418,-9.743c0.6,-6.744 3.064,-37.668 -21.316,-29.353Z"/></clipPath><g clip-path="url(#_clip16)"><g><g style="filter:url(#_Effect17);"><path d="M552.885,328.716c-16.571,-24.226 7.094,-66.917 15.573,-58.246c1.628,1.665 3.076,3.631 4.023,5.757c0.307,0.688 0.519,1.397 0.574,2.151c0.196,2.657 -1.218,5.055 -2.983,6.934c-1.973,2.102 -4.323,4.023 -4.534,7.107c-0.148,2.17 6.529,10.772 7.113,12.833c0.888,3.137 0.163,14.212 0.998,16.481c3.823,10.384 -13.265,17.946 -20.764,6.983Z" style="fill:#fff8f6;"/></g></g><path d="M570.416,310.222c0,0 3.484,2.219 7.276,-1.318c-2.788,4.763 -8.074,2.848 -8.074,2.848l0.798,-1.53Z" style="fill:#6a4345;"/><path d="M571.824,290.49c1.003,-0.449 2.182,0.002 2.631,1.005c0.448,1.003 -0.002,2.182 -1.005,2.63c-1.003,0.449 -2.182,-0.001 -2.63,-1.004c-0.449,-1.003 0.001,-2.182 1.004,-2.631Z" style="fill:#513335;"/></g><path d="M602.912,331.585c0,0 -17.973,9.841 -18.83,16.259c-0.858,6.419 2.539,14.12 2.539,14.12c0,0 -8.133,48.783 -18.411,52.205l-27.388,-26.531l-23.109,-10.272c0,0 13.694,-0.858 14.976,-13.695c1.282,-12.837 -1.714,-17.141 13.694,-23.109c15.408,-5.967 23.751,-13.053 23.751,-13.053l3.98,1.003l-20.449,10.793c0,0 -11.555,6.844 18.411,1.714l28.271,-10.259l2.565,0.825Z" style="fill-opacity:0.0980392;fill-rule:nonzero;"/><path d="M603.337,330.76c0,0 -17.998,9.84 -18.824,16.259c-0.825,6.418 2.54,14.119 2.54,14.119c0,0 -8.133,48.783 -18.411,52.205l-27.35,-26.524l-23.11,-10.272c0,0 13.694,-0.858 14.977,-13.695c1.282,-12.837 -1.714,-17.141 13.694,-23.109c15.408,-5.967 23.75,-13.053 23.75,-13.053l3.981,1.004l-20.449,10.792c0,0 -11.555,6.844 18.411,1.714l28.239,-10.272l2.552,0.832Z" style="fill:#ff808c;fill-rule:nonzero;"/><path d="M596.919,334.182c0,0 17.547,-6.406 13.268,14.126c-4.279,20.531 -26.531,56.052 -26.531,56.052l-52.205,-17.973c0,0 -16.259,-12.412 -11.98,-13.694c4.279,-1.283 26.957,6.844 26.957,6.844l30.81,4.742l7.275,-20.569c0,0 -6.844,-4.705 -4.704,-10.698l0.063,-0.178c2.906,-7.971 8.769,-14.527 16.367,-18.303l0.68,-0.349Z" style="fill-opacity:0.0980392;fill-rule:nonzero;"/><g><path d="M510.105,336.37l1.786,-10.94l0.554,-0.235l28.69,33.82l5.838,16.533l-5.007,1.365l-31.861,-40.543Z" style="fill:#373b6b;"/><path d="M513.883,336.391l0.799,-4.996l22.796,26.773l2.692,10.056l-26.287,-31.833Z" style="fill:#fffbf1;"/><path d="M515.899,337.828l0.65,-2.601l0.585,0.455l-0.52,2.602l-0.715,-0.456Z" style="fill:#373b6b;"/><path d="M517.2,338.999l0.585,-2.211l0.455,0.39l-0.52,2.082l-0.52,-0.261Z" style="fill:#373b6b;"/><path d="M518.305,340.56l0.716,-2.081l0.846,0.52l-0.781,2.147l-0.781,-0.586Z" style="fill:#373b6b;"/><path d="M519.867,342.122l0.52,-1.822l0.65,0.391l-0.585,2.081l-0.585,-0.65Z" style="fill:#373b6b;"/><path d="M522.468,345.764l0.846,-2.537l0.651,0.781l-0.781,2.667l-0.716,-0.911Z" style="fill:#373b6b;"/><path d="M523.965,347.391l0.78,-2.212l0.586,0.52l-0.586,2.212l-0.78,-0.52Z" style="fill:#373b6b;"/><path d="M525.591,349.212l0.845,-2.537l0.716,0.781l-0.781,2.732l-0.78,-0.976Z" style="fill:#373b6b;"/><path d="M528.518,353.18l0.716,-2.862l0.91,0.845l-0.78,2.602l-0.846,-0.585Z" style="fill:#373b6b;"/><path d="M530.209,354.546l0.846,-2.407l0.65,0.716l-0.91,2.667l-0.586,-0.976Z" style="fill:#373b6b;"/><path d="M531.575,355.977l1.236,-2.732l0.521,0.911l-1.106,2.602l-0.651,-0.781Z" style="fill:#373b6b;"/></g><path d="M597.776,333.331c0,0 17.547,-6.418 13.268,14.126c-4.279,20.544 -24.616,52.036 -29.769,51.98c-5.152,-0.057 -45.946,-10.112 -48.967,-13.888c-3.02,-3.776 -2.038,-25.47 2.241,-26.753c4.279,-1.282 6.191,19.029 12.736,19.903c6.544,0.873 27.783,5.234 30.81,4.704c3.026,-0.53 7.244,-20.551 7.244,-20.551c0,0 -6.844,-4.704 -4.705,-10.697l0.064,-0.178c2.905,-7.971 8.768,-14.527 16.367,-18.303l0.711,-0.343Z" style="fill:#ffbbb0;fill-rule:nonzero;"/><clipPath id="_clip18"><path d="M597.776,333.331c0,0 17.547,-6.418 13.268,14.126c-4.279,20.544 -24.616,52.036 -29.769,51.98c-5.152,-0.057 -45.946,-10.112 -48.967,-13.888c-3.02,-3.776 -2.038,-25.47 2.241,-26.753c4.279,-1.282 6.191,19.029 12.736,19.903c6.544,0.873 27.783,5.234 30.81,4.704c3.026,-0.53 7.244,-20.551 7.244,-20.551c0,0 -6.844,-4.704 -4.705,-10.697l0.064,-0.178c2.905,-7.971 8.768,-14.527 16.367,-18.303l0.711,-0.343Z" clip-rule="nonzero"/></clipPath><g clip-path="url(#_clip18)"><g opacity="0.5"><g style="filter:url(#_Effect19);"><path d="M590.419,328.052c2.199,0.096 2.296,0.515 2.971,1.033c1.4,1.074 2.136,2.441 1.914,4.619l-11.686,46.83c-0.15,0.929 0.003,0.42 -0.517,1.647c-0.759,1.787 -2.383,2.774 -4.76,2.69l-33.653,-3.665c-0.886,-0.083 -1.029,-0.158 -1.411,-0.299c-1.269,-0.468 -2.289,-1.482 -2.862,-2.715l-8.429,-14.943c-1.585,-4.003 3.686,-9.272 7.811,-5.803c0.569,0.479 0.873,0.772 1.376,1.851l8.228,9.319l24.913,5.976l11.075,-42.193c0.151,-0.934 0.276,-1.183 0.522,-1.656c0.814,-1.564 2.015,-2.526 4.217,-2.687c0.097,-0.001 0.194,-0.003 0.291,-0.004Z" style="fill:#fff;fill-rule:nonzero;"/></g></g></g><path d="M596.131,263.204c2.033,-0.577 4.152,-0.791 6.26,-0.635c1.991,0.288 3.922,0.901 5.714,1.816c2.884,1.341 5.646,2.932 8.253,4.755c1.746,1.225 3.46,2.571 5.479,3.269c3.022,1.048 6.527,0.559 9.314,2.14c3.904,2.209 4.78,7.504 4.202,11.948c-0.577,4.444 -6.884,10.298 -6.186,14.742c1.048,6.634 11.532,9.935 16.795,14.075c1.663,1.301 3.447,2.837 3.708,4.933c0.158,1.314 -0.324,2.609 -0.724,3.866c-2.23,6.899 -2.114,14.346 0.33,21.173c2.496,6.82 7.418,12.488 13.821,15.916c2.432,1.27 5.377,2.539 5.942,5.244c0.724,3.403 -2.939,6.037 -6.202,7.244c-2.662,0.983 -5.413,1.702 -8.215,2.145c-2.464,0.388 -5.079,0.54 -7.352,-0.539c-2.616,-1.27 -4.216,-3.93 -5.6,-6.482c-5.39,-9.942 -11.999,-14.818 -15.484,-25.573c-0.749,-2.317 -1.949,-5.079 -4.381,-5.313c-1.517,-0.146 -2.888,0.812 -4.183,1.625c-6.228,3.923 -12.768,-0.476 -18.564,-5.009c-1.34,-1.048 -2.489,-2.368 -3.981,-3.175c-3.174,-1.739 -7.789,-1.269 -9.694,-4.317c-0.441,-0.81 -0.747,-1.687 -0.908,-2.596c-0.781,-3.346 -1.555,-6.857 -0.635,-10.158c0.832,-3.067 3.003,-5.581 4.286,-8.495c1.282,-2.914 1.352,-6.888 -1.27,-8.691c-0.787,-0.54 -1.727,-0.819 -2.501,-1.384c-2.248,-1.632 -2.299,-4.889 -2.286,-7.663c0.057,-0.687 -0.061,-1.377 -0.343,-2.006c-0.411,-0.597 -0.951,-1.095 -1.581,-1.454c-2.509,-1.729 -4.456,-4.158 -5.599,-6.983c-1.137,-3.061 1.771,-4.445 4.088,-6.159c5.233,-3.876 11.179,-6.682 17.497,-8.259Z" style="fill-opacity:0.0980392;fill-rule:nonzero;"/><path d="M569.817,270.27c4.947,-4.243 12.558,-15.726 34.948,-4.454c1.906,0.959 3.634,2.32 5.697,2.873c3.089,0.831 6.55,0.096 9.442,1.475c4.051,1.928 5.299,7.147 5.037,11.621c-0.261,4.474 -3.165,9.12 -2.154,13.503c1.515,6.544 14.94,8.756 20.483,12.513c1.751,1.18 3.639,2.587 4.047,4.658c0.252,1.3 -0.138,2.626 -0.448,3.908c-1.736,7.039 -1.093,14.46 1.828,21.096c2.973,6.627 8.283,11.932 14.913,14.898c2.515,1.095 5.543,2.153 6.298,4.811c0.963,3.343 -2.504,6.23 -5.674,7.664c-2.594,1.165 -5.297,2.072 -8.07,2.705c-2.429,0.56 -5.028,0.898 -7.371,-0.018c-2.699,-1.082 -4.483,-3.622 -6.044,-6.07c-6.08,-9.535 -13.018,-13.931 -17.256,-24.412c-0.911,-2.258 -2.303,-4.928 -4.745,-4.99c-1.524,-0.039 -2.824,1.015 -4.059,1.917c-5.934,4.354 -12.768,0.428 -18.871,-3.683c-1.41,-0.95 -2.65,-2.186 -4.195,-2.885c-3.29,-1.51 -7.861,-0.715 -9.976,-3.62c-0.5,-0.792 -0.868,-1.66 -1.086,-2.57c-1.016,-3.282 -2.037,-6.73 -1.352,-10.088c0.612,-3.117 2.6,-5.779 3.673,-8.776c1.073,-2.998 0.861,-6.967 -1.882,-8.58c-0.823,-0.483 -1.78,-0.695 -2.593,-1.204c-2.357,-1.468 -2.638,-4.713 -2.822,-7.481c0.008,-0.69 -0.158,-1.37 -0.484,-1.977c-0.452,-0.567 -1.026,-1.025 -1.68,-1.339c-2.61,-1.529 -9.592,1.075 -10.941,-1.633c-1.35,-2.972 3.147,-7.988 5.337,-9.862Z" style="fill:#4c3031;fill-rule:nonzero;"/><clipPath id="_clip20"><path d="M569.817,270.27c4.947,-4.243 12.558,-15.726 34.948,-4.454c1.906,0.959 3.634,2.32 5.697,2.873c3.089,0.831 6.55,0.096 9.442,1.475c4.051,1.928 5.299,7.147 5.037,11.621c-0.261,4.474 -3.165,9.12 -2.154,13.503c1.515,6.544 14.94,8.756 20.483,12.513c1.751,1.18 3.639,2.587 4.047,4.658c0.252,1.3 -0.138,2.626 -0.448,3.908c-1.736,7.039 -1.093,14.46 1.828,21.096c2.973,6.627 8.283,11.932 14.913,14.898c2.515,1.095 5.543,2.153 6.298,4.811c0.963,3.343 -2.504,6.23 -5.674,7.664c-2.594,1.165 -5.297,2.072 -8.07,2.705c-2.429,0.56 -5.028,0.898 -7.371,-0.018c-2.699,-1.082 -4.483,-3.622 -6.044,-6.07c-6.08,-9.535 -13.018,-13.931 -17.256,-24.412c-0.911,-2.258 -2.303,-4.928 -4.745,-4.99c-1.524,-0.039 -2.824,1.015 -4.059,1.917c-5.934,4.354 -12.768,0.428 -18.871,-3.683c-1.41,-0.95 -2.65,-2.186 -4.195,-2.885c-3.29,-1.51 -7.861,-0.715 -9.976,-3.62c-0.5,-0.792 -0.868,-1.66 -1.086,-2.57c-1.016,-3.282 -2.037,-6.73 -1.352,-10.088c0.612,-3.117 2.6,-5.779 3.673,-8.776c1.073,-2.998 0.861,-6.967 -1.882,-8.58c-0.823,-0.483 -1.78,-0.695 -2.593,-1.204c-2.357,-1.468 -2.638,-4.713 -2.822,-7.481c0.008,-0.69 -0.158,-1.37 -0.484,-1.977c-0.452,-0.567 -1.026,-1.025 -1.68,-1.339c-2.61,-1.529 -9.592,1.075 -10.941,-1.633c-1.35,-2.972 3.147,-7.988 5.337,-9.862Z" clip-rule="nonzero"/></clipPath><g clip-path="url(#_clip20)"><g><g style="filter:url(#_Effect21);"><path d="M562.49,282.057c-2.428,-2.808 19.619,-25.167 22.689,-21.979c8.497,8.825 12.65,21.353 14.282,33.279c0.919,6.72 -19.032,28.752 -5.042,27.217c7.175,-0.787 12.734,10.483 19.633,9.116c10.94,-2.168 17.273,-4.933 16.605,5.515c-1,15.66 32.319,18.764 26.638,32.546c-3.343,8.111 -13.54,20.111 -21.044,5.174c-16.093,-32.032 -51.168,-30.763 -55.313,-45.583c-1.266,-4.526 -13.841,-19.278 -12.578,-23.84c0,0 -0.066,-7.062 -1.477,-11.943c-0.978,-3.383 -2.159,-6.884 -4.393,-9.502Z" style="fill:#9f6462;fill-opacity:0.745098;fill-rule:nonzero;"/></g></g></g><path d="M397.304,450.363c11.618,2.45 45.513,1.409 50.491,-2.54c7.618,-6.095 5.713,-11.504 5.237,-12.621l0.115,0c0,0 -4.279,-10.272 0,-17.973c0,0 0.425,-9.415 9.415,-16.691c8.989,-7.275 18.83,-27.813 18.83,-27.813l5.136,10.697c0,0 7.72,23.49 15.726,33.915c1.597,2.069 2.685,4.485 3.174,7.053c0.533,2.832 2.362,6.393 8.05,7.384l0.298,0.05c8.103,1.348 16.289,-2.125 20.951,-8.888c3.809,-5.517 8.171,-13.167 9.148,-20.62c0.647,-5.069 -0.878,-10.183 -4.196,-14.069l-0.045,-0.057c-9.218,-10.888 -41.171,-48.351 -46.288,-50.542c0,0 -23.109,-22.22 -32.092,7.701c-8.984,29.921 -11.961,38.93 -11.961,38.93c0,0 -10.742,19.192 -13.694,25.674c-3.048,6.698 -15.719,23.414 -17.008,25.103c-1.175,0.806 -12.501,8.488 -16.151,8.488c-1.613,-0.032 -13.504,5.047 -5.136,6.819Z" style="fill:#ffbbb0;fill-rule:nonzero;"/><clipPath id="_clip22"><path d="M397.304,450.363c11.618,2.45 45.513,1.409 50.491,-2.54c7.618,-6.095 5.713,-11.504 5.237,-12.621l0.115,0c0,0 -4.279,-10.272 0,-17.973c0,0 0.425,-9.415 9.415,-16.691c8.989,-7.275 18.83,-27.813 18.83,-27.813l5.136,10.697c0,0 7.72,23.49 15.726,33.915c1.597,2.069 2.685,4.485 3.174,7.053c0.533,2.832 2.362,6.393 8.05,7.384l0.298,0.05c8.103,1.348 16.289,-2.125 20.951,-8.888c3.809,-5.517 8.171,-13.167 9.148,-20.62c0.647,-5.069 -0.878,-10.183 -4.196,-14.069l-0.045,-0.057c-9.218,-10.888 -41.171,-48.351 -46.288,-50.542c0,0 -23.109,-22.22 -32.092,7.701c-8.984,29.921 -11.961,38.93 -11.961,38.93c0,0 -10.742,19.192 -13.694,25.674c-3.048,6.698 -15.719,23.414 -17.008,25.103c-1.175,0.806 -12.501,8.488 -16.151,8.488c-1.613,-0.032 -13.504,5.047 -5.136,6.819Z" clip-rule="nonzero"/></clipPath><g clip-path="url(#_clip22)"><g><g style="filter:url(#_Effect23);"><path d="M488.161,323.053l-22.307,20.154l-20.546,54.397l-25.437,36.982l-19.763,12.327l-12.131,2.739l36.786,-57.527l34.047,-62.224l16.436,-17.414l12.915,10.566Z" style="fill:#fff;"/></g></g></g><path d="M451.382,423.228c-0.362,-3.326 -0.165,-7.288 1.752,-10.735c0,0 0.425,-9.415 9.415,-16.691c8.99,-7.276 18.83,-27.813 18.83,-27.813l5.136,10.697c0,0 7.72,23.49 15.726,33.915c1.597,2.069 2.685,4.485 3.174,7.053c0.533,2.832 2.362,6.393 8.05,7.384l0.299,0.05c8.102,1.348 16.288,-2.125 20.95,-8.888c3.809,-5.453 8.069,-12.996 9.111,-20.373c0.237,1.62 0.25,3.265 0.038,4.889c-0.984,7.453 -5.32,15.11 -9.149,20.62c-4.662,6.763 -12.848,10.236 -20.95,8.888l-0.299,-0.05c-5.714,-0.991 -7.517,-4.552 -8.05,-7.384c-0.489,-2.568 -1.577,-4.984 -3.174,-7.053c-8.006,-10.431 -15.726,-33.915 -15.726,-33.915l-5.136,-10.697c0,0 -9.84,20.538 -18.83,27.813c-8.99,7.276 -9.415,16.691 -9.415,16.691c-0.94,1.736 -1.535,3.637 -1.752,5.599Zm111.52,-55.455c0,0 -18.411,-0.426 -17.141,-6.419" style="fill-opacity:0.0470588;fill-rule:nonzero;"/><path d="M261.137,389.149c0,0 -28.569,-19.681 -56.503,-12.698c-27.934,6.984 -6.983,31.109 -6.983,31.109l63.486,-18.411Z" style="fill:#eed1d7;fill-rule:nonzero;"/><path d="M272.565,376.451c0,0 -27.934,-12.062 -46.98,0.635c-19.046,12.698 -57.138,19.046 -57.138,19.046" style="fill:#ccb2bb;fill-rule:nonzero;"/><path d="M540.058,282.25c0,0 3.074,3.602 6.245,3.49c3.17,-0.113 4.9,-3.602 4.9,-3.602c0,0 -2.691,1.463 -4.804,1.463c-2.114,0 -6.341,-1.351 -6.341,-1.351Z" style="fill:#513335;"/></g><defs><linearGradient id="_Linear1" x1="0" y1="0" x2="1" y2="0" gradientUnits="userSpaceOnUse" gradientTransform="matrix(5.32579e-17,-0.869768,0.869768,5.32579e-17,530.594,228.381)"><stop offset="0" style="stop-color:#808080;stop-opacity:0.0117647"/><stop offset="0.54" style="stop-color:#808080;stop-opacity:0.00392157"/><stop offset="1" style="stop-color:#808080;stop-opacity:0.00392157"/></linearGradient><linearGradient id="_Linear2" x1="0" y1="0" x2="1" y2="0" gradientUnits="userSpaceOnUse" gradientTransform="matrix(5.32579e-17,-0.869768,0.869768,5.32579e-17,530.594,227.943)"><stop offset="0" style="stop-color:#808080;stop-opacity:0.0117647"/><stop offset="0.54" style="stop-color:#808080;stop-opacity:0.00392157"/><stop offset="1" style="stop-color:#808080;stop-opacity:0.00392157"/></linearGradient><linearGradient id="_Linear3" x1="0" y1="0" x2="1" y2="0" gradientUnits="userSpaceOnUse" gradientTransform="matrix(1.43777e-14,-234.806,234.806,1.43777e-14,502.476,454.127)"><stop offset="0" style="stop-color:#808080;stop-opacity:0.247059"/><stop offset="0.54" style="stop-color:#808080;stop-opacity:0.113725"/><stop offset="1" style="stop-color:#808080;stop-opacity:0.0941176"/></linearGradient><linearGradient id="_Linear4" x1="0" y1="0" x2="1" y2="0" gradientUnits="userSpaceOnUse" gradientTransform="matrix(1.32523e-15,-21.6426,21.6426,1.32523e-15,497.638,345.736)"><stop offset="0" style="stop-color:#808080;stop-opacity:0.0117647"/><stop offset="0.54" style="stop-color:#808080;stop-opacity:0.00392157"/><stop offset="1" style="stop-color:#808080;stop-opacity:0.00392157"/></linearGradient><filter id="_Effect6" filterUnits="userSpaceOnUse" x="317.52" y="338.051" width="144.732" height="120.609"><feGaussianBlur in="SourceGraphic" stdDeviation="5.09524"/></filter><filter id="_Effect8" filterUnits="userSpaceOnUse" x="475.112" y="218.478" width="92.7068" height="101.308"><feGaussianBlur in="SourceGraphic" stdDeviation="5.09524"/></filter><filter id="_Effect10" filterUnits="userSpaceOnUse" x="459.267" y="202.639" width="147.243" height="130.444"><feGaussianBlur in="SourceGraphic" stdDeviation="6.04762"/></filter><filter id="_Effect12" filterUnits="userSpaceOnUse" x="573.217" y="304.012" width="58.2356" height="103.24"><feGaussianBlur in="SourceGraphic" stdDeviation="2.61905"/></filter><filter id="_Effect15" filterUnits="userSpaceOnUse" x="304.399" y="358.029" width="225.952" height="100.288"><feGaussianBlur in="SourceGraphic" stdDeviation="4.52381"/></filter><filter id="_Effect17" filterUnits="userSpaceOnUse" x="478.863" y="217.414" width="168.883" height="171.553"><feGaussianBlur in="SourceGraphic" stdDeviation="7"/></filter><filter id="_Effect19" filterUnits="userSpaceOnUse" x="518.606" y="316.352" width="90.9403" height="82.4407"><feGaussianBlur in="SourceGraphic" stdDeviation="1.85714"/></filter><filter id="_Effect21" filterUnits="userSpaceOnUse" x="481.694" y="175.905" width="256.473" height="288.645"><feGaussianBlur in="SourceGraphic" stdDeviation="12.7619"/></filter><filter id="_Effect23" filterUnits="userSpaceOnUse" x="368.834" y="293.344" width="138.47" height="175.452"><feGaussianBlur in="SourceGraphic" stdDeviation="3.19048"/></filter></defs></svg>