<?xml version="1.0" encoding="iso-8859-1"?>
<!-- Generator: Adobe Illustrator 21.0.0, SVG Export Plug-In . SVG Version: 6.00 Build 0)  -->
<svg version="1.1" id="Layer_1" xmlns="http://www.w3.org/2000/svg" xmlns:xlink="http://www.w3.org/1999/xlink" x="0px" y="0px"
	 viewBox="0 0 100.353 100.352" style="enable-background:new 0 0 100.353 100.352;" xml:space="preserve">
<g>
	<path d="M51.709,63.893c-3.751,0-6.803,3.053-6.803,6.805s3.052,6.805,6.803,6.805c3.756,0,6.812-3.053,6.812-6.805
		S55.466,63.893,51.709,63.893z M51.709,74.503c-2.097,0-3.803-1.707-3.803-3.805s1.706-3.805,3.803-3.805
		c2.102,0,3.812,1.707,3.812,3.805S53.811,74.503,51.709,74.503z"/>
	<path d="M51.709,47.694c-6.948,0-13.565,3.346-17.703,8.952c-0.492,0.667-0.35,1.605,0.316,2.098
		c0.268,0.198,0.58,0.293,0.89,0.293c0.46,0,0.914-0.211,1.208-0.609c3.627-4.915,9.2-7.733,15.289-7.733
		c5.818,0,11.236,2.614,14.863,7.173c0.516,0.649,1.459,0.756,2.108,0.24c0.648-0.516,0.755-1.459,0.24-2.108
		C64.72,50.72,58.447,47.694,51.709,47.694z"/>
	<path d="M51.709,33.782c-10.74,0-20.837,4.759-27.7,13.058c-0.528,0.638-0.438,1.584,0.2,2.112c0.28,0.231,0.619,0.344,0.955,0.344
		c0.432,0,0.86-0.186,1.157-0.544c6.292-7.607,15.545-11.97,25.389-11.97c9.545,0,18.606,4.135,24.86,11.344
		c0.543,0.625,1.491,0.692,2.116,0.15c0.626-0.543,0.693-1.49,0.15-2.116C72.012,38.294,62.125,33.782,51.709,33.782z"/>
	<path d="M87.637,37.488C78.49,27.293,65.395,21.446,51.71,21.446c-13.974,0-27.245,6.055-36.412,16.612
		c-0.543,0.625-0.476,1.573,0.149,2.116c0.284,0.247,0.634,0.367,0.983,0.367c0.419,0,0.836-0.175,1.133-0.517
		c8.596-9.9,21.042-15.579,34.146-15.579c12.834,0,25.116,5.484,33.694,15.045c0.554,0.617,1.502,0.668,2.118,0.115
		C88.138,39.053,88.19,38.104,87.637,37.488z"/>
</g>
</svg>
